M48
;Layer_Color=9474304
;FILE_FORMAT=4:4
METRIC,LZ
;TYPE=PLATED
T01F00S00C0.7620
T02F00S00C0.8000
T03F00S00C1.0000
T04F00S00C1.0700
T05F00S00C1.1000
%
T01
X0087275Y00193
X00919712Y00193264
X00871Y003485
X0081425
X0046025Y002945
X00461Y002185
X0013925Y004795
X000455Y0048025
X0086325Y0057175
X0093425Y0057125
T02
X000845Y0004285
Y0006825
X001595
Y0004285
X001849
Y0006825
Y0009365
X001595
X0027975Y0009585
X0030515
Y0007045
Y0004505
X0027975
Y0007045
X003706Y000705
X00396
Y000959
X003706
Y000451
X00396
X0052845Y0016365
X0055385
X0061275Y0029375
X0063815
X0066355
X0068895
X0071435
X0073975
X0076515
X0079055
X00792Y0032525
X00789883Y00358076
X0077565Y0047985
X0075025
Y0050525
Y0053065
X0077565
Y0050525
X008331Y005051
X008585
Y005305
X008331
Y004797
X008585
X00657575Y00476325
X0065825Y00507
X00637883Y00358076
X0064Y0032525
X0055385Y0039225
X0052845
X0050305
X0045225
X0042685
X0040145
X0037605
X0032525
X0029985
X0027445
X0024905
X0022365
X0019825
X0017285
X0014745
Y0016365
X0017285
X0019825
X0022365
X0024905
X0027445
X0029985
X0032525
X0035065
X0037605
X0040145
X0042685
X0045225
X0047765
X0050305
X00505575Y00476325
X0050625Y00507
X0033375Y005034
X0030835
Y00478
X0033375
Y005288
X0030835
X0012205Y0039225
X0009665
Y0016365
X0012205
X0050625Y005375
Y0057025
X0065825
Y005375
T03
X00873499Y0025605
Y0028145
Y0030685
X004787Y00440249
X004533
X004279
X0030035Y002625
X0027495
X0024955
X0023875Y00542
X0021335
X0018795
T04
X00873499Y0023065
X005041Y00440249
X0022415Y002625
X0026415Y00542
T05
X0035065Y0039225
X0047765
M30
