G04*
G04 #@! TF.GenerationSoftware,Altium Limited,Altium Designer,23.7.1 (13)*
G04*
G04 Layer_Physical_Order=2*
G04 Layer_Color=16711680*
%FSLAX44Y44*%
%MOMM*%
G71*
G04*
G04 #@! TF.SameCoordinates,6A6514B3-BAE0-4B46-B0EA-18BC37126D95*
G04*
G04*
G04 #@! TF.FilePolarity,Positive*
G04*
G01*
G75*
%ADD24C,1.0000*%
%ADD26C,0.5000*%
%ADD27C,1.5240*%
%ADD28C,1.7000*%
%ADD29R,1.7000X1.7000*%
%ADD30C,1.8000*%
%ADD31R,1.6050X1.6050*%
%ADD32O,1.6000X1.9000*%
%ADD33R,1.7000X1.7000*%
%ADD34O,1.6000X1.8000*%
%ADD35C,1.6000*%
%ADD36O,1.9000X1.6000*%
%ADD37R,1.6050X1.6050*%
G36*
X57129Y477375D02*
X56432Y477348D01*
X55746Y477266D01*
X55072Y477130D01*
X54409Y476940D01*
X53758Y476695D01*
X53118Y476396D01*
X52490Y476042D01*
X51873Y475634D01*
X51267Y475172D01*
X50673Y474655D01*
X51198Y485310D01*
X51729Y484752D01*
X52279Y484253D01*
X52849Y483813D01*
X53439Y483432D01*
X54049Y483109D01*
X54678Y482845D01*
X55326Y482639D01*
X55995Y482492D01*
X56682Y482404D01*
X57390Y482375D01*
X57129Y477375D01*
D02*
G37*
G36*
X127621Y482375D02*
X128318Y482402D01*
X129004Y482484D01*
X129678Y482620D01*
X130341Y482810D01*
X130992Y483055D01*
X131632Y483354D01*
X132260Y483708D01*
X132877Y484116D01*
X133483Y484579D01*
X134077Y485095D01*
X133552Y474440D01*
X133021Y474998D01*
X132471Y475497D01*
X131900Y475937D01*
X131311Y476319D01*
X130701Y476641D01*
X130072Y476905D01*
X129424Y477111D01*
X128755Y477258D01*
X128068Y477346D01*
X127360Y477375D01*
X127621Y482375D01*
D02*
G37*
G36*
X463500Y230270D02*
X463528Y229568D01*
X463613Y228881D01*
X463755Y228209D01*
X463953Y227553D01*
X464208Y226913D01*
X464520Y226288D01*
X464889Y225678D01*
X465314Y225084D01*
X465796Y224505D01*
X466334Y223942D01*
X455666D01*
X456204Y224505D01*
X456686Y225084D01*
X457111Y225678D01*
X457480Y226288D01*
X457791Y226913D01*
X458047Y227553D01*
X458245Y228209D01*
X458387Y228881D01*
X458472Y229568D01*
X458500Y230270D01*
X463500D01*
D02*
G37*
G36*
X458500Y282512D02*
X458470Y283224D01*
X458379Y283912D01*
X458228Y284576D01*
X458016Y285217D01*
X457744Y285833D01*
X457412Y286426D01*
X457019Y286995D01*
X456566Y287541D01*
X456052Y288062D01*
X455477Y288560D01*
X466094Y289610D01*
X465601Y288986D01*
X465160Y288355D01*
X464771Y287716D01*
X464434Y287070D01*
X464148Y286416D01*
X463915Y285755D01*
X463733Y285087D01*
X463604Y284411D01*
X463526Y283727D01*
X463500Y283036D01*
X458500Y282512D01*
D02*
G37*
G36*
X826020Y346000D02*
X825318Y345972D01*
X824631Y345887D01*
X823959Y345745D01*
X823303Y345547D01*
X822663Y345291D01*
X822038Y344980D01*
X821428Y344611D01*
X820834Y344186D01*
X820255Y343704D01*
X819692Y343166D01*
Y353834D01*
X820255Y353296D01*
X820834Y352814D01*
X821428Y352389D01*
X822038Y352020D01*
X822663Y351708D01*
X823303Y351453D01*
X823959Y351255D01*
X824631Y351113D01*
X825318Y351028D01*
X826020Y351000D01*
Y346000D01*
D02*
G37*
G36*
X883511Y188554D02*
X882644Y188549D01*
X879181Y188320D01*
X878893Y188248D01*
X878688Y188167D01*
X878565Y188076D01*
X877789Y198716D01*
X877870Y198685D01*
X878038Y198658D01*
X878294Y198633D01*
X879587Y198580D01*
X882539Y198554D01*
X883511Y188554D01*
D02*
G37*
G36*
X909656Y198554D02*
X914478Y198801D01*
X914072Y188141D01*
X913955Y188220D01*
X913755Y188290D01*
X913471Y188352D01*
X913104Y188406D01*
X912120Y188488D01*
X910018Y188550D01*
X909150Y188554D01*
X909656Y198554D01*
D02*
G37*
G36*
X859230Y351000D02*
X859932Y351028D01*
X860619Y351113D01*
X861291Y351255D01*
X861947Y351453D01*
X862587Y351708D01*
X863212Y352020D01*
X863822Y352389D01*
X864416Y352814D01*
X864995Y353296D01*
X865558Y353834D01*
Y343166D01*
X864995Y343704D01*
X864416Y344186D01*
X863822Y344611D01*
X863212Y344980D01*
X862587Y345291D01*
X861947Y345547D01*
X861291Y345745D01*
X860619Y345887D01*
X859932Y345972D01*
X859230Y346000D01*
Y351000D01*
D02*
G37*
G36*
X874929Y569000D02*
X874230Y568972D01*
X873543Y568890D01*
X872870Y568752D01*
X872210Y568558D01*
X871562Y568310D01*
X870927Y568007D01*
X870304Y567648D01*
X869695Y567234D01*
X869098Y566765D01*
X868514Y566240D01*
X868864Y576903D01*
X869406Y576351D01*
X869966Y575858D01*
X870544Y575422D01*
X871141Y575045D01*
X871756Y574726D01*
X872388Y574464D01*
X873040Y574261D01*
X873709Y574116D01*
X874397Y574029D01*
X875102Y574000D01*
X874929Y569000D01*
D02*
G37*
G36*
X922571Y574000D02*
X923270Y574028D01*
X923956Y574110D01*
X924630Y574248D01*
X925290Y574441D01*
X925938Y574690D01*
X926573Y574993D01*
X927196Y575352D01*
X927805Y575766D01*
X928402Y576235D01*
X928986Y576760D01*
X928636Y566097D01*
X928094Y566649D01*
X927534Y567142D01*
X926956Y567578D01*
X926359Y567955D01*
X925744Y568274D01*
X925112Y568536D01*
X924460Y568739D01*
X923791Y568884D01*
X923103Y568971D01*
X922398Y569000D01*
X922571Y574000D01*
D02*
G37*
D24*
X873311Y193554D02*
X919422D01*
X919712Y193264D01*
D26*
X814250Y348500D02*
X871000D01*
X863250Y571750D02*
X863500Y571500D01*
X934000D01*
X934250Y571250D01*
X45500Y480250D02*
X45875Y479875D01*
X138875D01*
X139250Y479500D01*
X460250Y294500D02*
X461000Y293750D01*
Y218500D02*
Y293750D01*
D27*
X871000Y348500D02*
D03*
X814250D02*
D03*
X934250Y571250D02*
D03*
X863250Y571750D02*
D03*
X919712Y193264D02*
D03*
X872750Y193000D02*
D03*
X45500Y480250D02*
D03*
X139250Y479500D02*
D03*
X460250Y294500D02*
D03*
X461000Y218500D02*
D03*
D28*
X858500Y505100D02*
D03*
X833100Y530500D02*
D03*
Y479700D02*
D03*
X858500Y530500D02*
D03*
X833100Y505100D02*
D03*
X122050Y163650D02*
D03*
X147450D02*
D03*
X172850D02*
D03*
X198250D02*
D03*
X223650D02*
D03*
X249050D02*
D03*
X274450D02*
D03*
X299850D02*
D03*
X325250D02*
D03*
X350650D02*
D03*
X376050D02*
D03*
X401450D02*
D03*
X426850D02*
D03*
X452250D02*
D03*
X477650D02*
D03*
X503050D02*
D03*
X528450D02*
D03*
X553850D02*
D03*
X96650Y392250D02*
D03*
X122050D02*
D03*
X147450D02*
D03*
X172850D02*
D03*
X198250D02*
D03*
X223650D02*
D03*
X249050D02*
D03*
X274450D02*
D03*
X299850D02*
D03*
X325250D02*
D03*
X376050D02*
D03*
X401450D02*
D03*
X426850D02*
D03*
X528450D02*
D03*
X553850D02*
D03*
X750250Y505250D02*
D03*
X775650Y530650D02*
D03*
X750250Y479850D02*
D03*
Y530650D02*
D03*
X775650Y505250D02*
D03*
X396000Y70500D02*
D03*
X370600Y45100D02*
D03*
X396000Y95900D02*
D03*
Y45100D02*
D03*
X370600Y70500D02*
D03*
X305150Y70450D02*
D03*
X279750Y45050D02*
D03*
X305150Y95850D02*
D03*
Y45050D02*
D03*
X279750Y70450D02*
D03*
X84500Y68250D02*
D03*
X159500D02*
D03*
X184900Y93650D02*
D03*
X159500Y42850D02*
D03*
Y93650D02*
D03*
X184900Y68250D02*
D03*
X308350Y503400D02*
D03*
X333750Y478000D02*
D03*
Y528800D02*
D03*
X308350Y478000D02*
D03*
X333750Y503400D02*
D03*
X612750Y293750D02*
D03*
X638150D02*
D03*
X663550D02*
D03*
X688950D02*
D03*
X714350D02*
D03*
X739750D02*
D03*
X765150D02*
D03*
D29*
X858500Y479700D02*
D03*
X775650Y479850D02*
D03*
X370600Y95900D02*
D03*
X279750Y95850D02*
D03*
X84500Y42850D02*
D03*
X184900D02*
D03*
X308350Y528800D02*
D03*
D30*
X789883Y358076D02*
D03*
X637883D02*
D03*
X792000Y325250D02*
D03*
X640000D02*
D03*
X658250Y537500D02*
D03*
X506250D02*
D03*
Y507000D02*
D03*
X658250D02*
D03*
X657575Y476325D02*
D03*
X505575D02*
D03*
X506250Y570250D02*
D03*
X658250D02*
D03*
D31*
X264150Y542000D02*
D03*
X224150Y262500D02*
D03*
X504100Y440249D02*
D03*
D32*
X238750Y542000D02*
D03*
X213350D02*
D03*
X187950D02*
D03*
X249550Y262500D02*
D03*
X274950D02*
D03*
X300350D02*
D03*
X478700Y440249D02*
D03*
X453300D02*
D03*
X427900D02*
D03*
D33*
X96650Y163650D02*
D03*
X790550Y293750D02*
D03*
D34*
X350650Y392250D02*
D03*
X452250D02*
D03*
X477650D02*
D03*
D35*
X503050D02*
D03*
D36*
X873499Y306850D02*
D03*
Y281450D02*
D03*
Y256050D02*
D03*
D37*
Y230650D02*
D03*
M02*
