G04*
G04 #@! TF.GenerationSoftware,Altium Limited,Altium Designer,23.7.1 (13)*
G04*
G04 Layer_Color=65535*
%FSLAX44Y44*%
%MOMM*%
G71*
G04*
G04 #@! TF.SameCoordinates,6B1A5528-D298-446E-BE42-4F112F928972*
G04*
G04*
G04 #@! TF.FilePolarity,Positive*
G04*
G01*
G75*
%ADD10C,0.2000*%
%ADD11C,0.2540*%
%ADD12C,0.1270*%
D10*
X286651Y542500D02*
G03*
X286651Y542500I-1000J0D01*
G01*
X83950Y271601D02*
G03*
X83950Y284301I0J6350D01*
G01*
X203650Y262000D02*
G03*
X203650Y262000I-1000J0D01*
G01*
X526600Y440750D02*
G03*
X526600Y440750I-1000J0D01*
G01*
X875000Y209150D02*
G03*
X875000Y209150I-1000J0D01*
G01*
X649883Y358076D02*
X675633D01*
X752133D02*
X777883D01*
X675633Y348076D02*
Y358076D01*
Y348076D02*
X752133D01*
Y370076D01*
X675883D02*
X752383D01*
X675633Y358076D02*
Y370076D01*
X652000Y325250D02*
X677750D01*
X754250D02*
X780000D01*
X677750Y315250D02*
Y325250D01*
Y315250D02*
X754250D01*
Y337250D01*
X678000D02*
X754500D01*
X677750Y325250D02*
Y337250D01*
X518250Y537500D02*
X544000D01*
X620500D02*
X646250D01*
X544000Y527500D02*
Y537500D01*
Y527500D02*
X620500D01*
Y549500D01*
X544250D02*
X620750D01*
X544000Y537500D02*
Y549500D01*
Y507000D02*
Y519000D01*
X544250D02*
X620750D01*
X620500Y497000D02*
Y519000D01*
X544000Y497000D02*
X620500D01*
X544000D02*
Y507000D01*
X620500D02*
X646250D01*
X518250D02*
X544000D01*
X517575Y476325D02*
X543325D01*
X619825D02*
X645575D01*
X543325Y466325D02*
Y476325D01*
Y466325D02*
X619825D01*
Y488324D01*
X543575D02*
X620075D01*
X543325Y476325D02*
Y488324D01*
X83950Y180000D02*
Y271600D01*
Y284300D02*
Y375900D01*
X566550D01*
Y180000D02*
Y375900D01*
X83950Y180000D02*
X566550D01*
X544000Y570250D02*
Y582250D01*
X544250D02*
X620750D01*
X620500Y560250D02*
Y582250D01*
X544000Y560250D02*
X620500D01*
X544000D02*
Y570250D01*
X620500D02*
X646250D01*
X518250D02*
X544000D01*
X600350Y278750D02*
X804550D01*
X600050Y277400D02*
Y307750D01*
X804550D01*
D11*
X873500Y464700D02*
Y547700D01*
X817500D02*
X873500D01*
X817500Y464700D02*
Y547700D01*
Y464700D02*
X873500D01*
X734650Y464850D02*
X790650D01*
X734650D02*
Y547850D01*
X790650D01*
Y464850D02*
Y547850D01*
X355600Y110900D02*
X411600D01*
Y27900D02*
Y110900D01*
X355600Y27900D02*
X411600D01*
X355600D02*
Y110900D01*
X264750Y110850D02*
X320750D01*
Y27850D02*
Y110850D01*
X264750Y27850D02*
X320750D01*
X264750D02*
Y110850D01*
X97500Y30850D02*
Y79850D01*
X71500D02*
X97500D01*
X71500Y30850D02*
Y79850D01*
Y30850D02*
X97500D01*
X143900Y27850D02*
X199900D01*
X143900D02*
Y110850D01*
X199900D01*
Y27850D02*
Y110850D01*
X293350Y460800D02*
Y543800D01*
Y460800D02*
X349350D01*
Y543800D01*
X293350D02*
X349350D01*
X804550Y278750D02*
Y307750D01*
X828805Y571861D02*
X823726D01*
X826265D01*
Y559165D01*
X823726Y556626D01*
X821187D01*
X818648Y559165D01*
X844040Y571861D02*
X833883D01*
Y564244D01*
X838961Y566783D01*
X841501D01*
X844040Y564244D01*
Y559165D01*
X841501Y556626D01*
X836422D01*
X833883Y559165D01*
X623319Y368661D02*
X618240Y366122D01*
X613162Y361044D01*
Y355965D01*
X615701Y353426D01*
X620779D01*
X623319Y355965D01*
Y358504D01*
X620779Y361044D01*
X613162D01*
X625351Y335641D02*
X615194D01*
Y328023D01*
X620272Y330563D01*
X622812D01*
X625351Y328023D01*
Y322945D01*
X622812Y320406D01*
X617733D01*
X615194Y322945D01*
X182629Y580243D02*
X177550D01*
X180089D01*
Y567547D01*
X177550Y565008D01*
X175011D01*
X172472Y567547D01*
X187707Y565008D02*
X192785D01*
X190246D01*
Y580243D01*
X187707Y577704D01*
X686078Y529883D02*
X675922D01*
X686078Y540039D01*
Y542578D01*
X683539Y545118D01*
X678461D01*
X675922Y542578D01*
X672172Y512079D02*
X674711Y514618D01*
X679789D01*
X682328Y512079D01*
Y509539D01*
X679789Y507000D01*
X677250D01*
X679789D01*
X682328Y504461D01*
Y501922D01*
X679789Y499383D01*
X674711D01*
X672172Y501922D01*
X485397Y471536D02*
Y486771D01*
X477780Y479154D01*
X487937D01*
X93983Y427843D02*
X88904D01*
X91444D01*
Y415147D01*
X88904Y412608D01*
X86365D01*
X83826Y415147D01*
X109218Y427843D02*
X104139Y425304D01*
X99061Y420225D01*
Y415147D01*
X101600Y412608D01*
X106679D01*
X109218Y415147D01*
Y417686D01*
X106679Y420225D01*
X99061D01*
X213363Y300843D02*
X208284D01*
X210823D01*
Y288147D01*
X208284Y285608D01*
X205745D01*
X203206Y288147D01*
X218441Y285608D02*
X223519D01*
X220980D01*
Y300843D01*
X218441Y298304D01*
X231137D02*
X233676Y300843D01*
X238755D01*
X241294Y298304D01*
Y295765D01*
X238755Y293225D01*
X236215D01*
X238755D01*
X241294Y290686D01*
Y288147D01*
X238755Y285608D01*
X233676D01*
X231137Y288147D01*
X746001Y571861D02*
X740922D01*
X743462D01*
Y559165D01*
X740922Y556626D01*
X738383D01*
X735844Y559165D01*
X761236Y556626D02*
X751079D01*
X761236Y566783D01*
Y569322D01*
X758697Y571861D01*
X753618D01*
X751079Y569322D01*
X367033Y134981D02*
X361954D01*
X364493D01*
Y122285D01*
X361954Y119746D01*
X359415D01*
X356876Y122285D01*
X372111Y119746D02*
X377189D01*
X374650D01*
Y134981D01*
X372111Y132442D01*
X384807D02*
X387346Y134981D01*
X392425D01*
X394964Y132442D01*
Y122285D01*
X392425Y119746D01*
X387346D01*
X384807Y122285D01*
Y132442D01*
X276101Y135015D02*
X271022D01*
X273561D01*
Y122319D01*
X271022Y119780D01*
X268483D01*
X265944Y122319D01*
X281179Y119780D02*
X286257D01*
X283718D01*
Y135015D01*
X281179Y132476D01*
X304032Y119780D02*
X293875D01*
X304032Y129937D01*
Y132476D01*
X301493Y135015D01*
X296414D01*
X293875Y132476D01*
X82807Y104159D02*
X77728D01*
X80267D01*
Y91463D01*
X77728Y88924D01*
X75189D01*
X72650Y91463D01*
X87885Y101620D02*
X90424Y104159D01*
X95503D01*
X98042Y101620D01*
Y99081D01*
X95503Y96542D01*
X98042Y94002D01*
Y91463D01*
X95503Y88924D01*
X90424D01*
X87885Y91463D01*
Y94002D01*
X90424Y96542D01*
X87885Y99081D01*
Y101620D01*
X90424Y96542D02*
X95503D01*
X155451Y134981D02*
X150372D01*
X152912D01*
Y122285D01*
X150372Y119746D01*
X147833D01*
X145294Y122285D01*
X160529Y119746D02*
X165607D01*
X163068D01*
Y134981D01*
X160529Y132442D01*
X173225Y119746D02*
X178303D01*
X175764D01*
Y134981D01*
X173225Y132442D01*
X304803Y568051D02*
X299724D01*
X302264D01*
Y555355D01*
X299724Y552816D01*
X297185D01*
X294646Y555355D01*
X309881Y565512D02*
X312420Y568051D01*
X317499D01*
X320038Y565512D01*
Y562973D01*
X317499Y560434D01*
X314959D01*
X317499D01*
X320038Y557894D01*
Y555355D01*
X317499Y552816D01*
X312420D01*
X309881Y555355D01*
X679211Y562383D02*
X684289D01*
X681750D01*
Y577617D01*
X679211Y575078D01*
X386083Y436460D02*
Y431382D01*
Y433921D01*
X398779D01*
X401318Y431382D01*
Y428843D01*
X398779Y426303D01*
X401318Y449156D02*
X386083D01*
X393700Y441539D01*
Y451695D01*
X610619Y331831D02*
X605540D01*
X608079D01*
Y319135D01*
X605540Y316596D01*
X603001D01*
X600462Y319135D01*
X615697D02*
X618236Y316596D01*
X623315D01*
X625854Y319135D01*
Y329292D01*
X623315Y331831D01*
X618236D01*
X615697Y329292D01*
Y326753D01*
X618236Y324213D01*
X625854D01*
X870715Y347579D02*
X865636D01*
X868176D01*
Y334883D01*
X865636Y332344D01*
X863097D01*
X860558Y334883D01*
X875793Y347579D02*
X885950D01*
Y345040D01*
X875793Y334883D01*
Y332344D01*
D12*
X279350Y529300D02*
Y554700D01*
X172750D02*
X279350D01*
X172750Y529300D02*
Y554700D01*
Y529300D02*
X279350D01*
X208950Y249800D02*
Y275201D01*
Y249800D02*
X315550D01*
Y275201D01*
X208950D02*
X315550D01*
X519300Y427549D02*
Y452949D01*
X412701D02*
X519300D01*
X412701Y427549D02*
Y452949D01*
Y427549D02*
X519300D01*
X860799Y215450D02*
Y322050D01*
X886199D01*
Y215450D02*
Y322050D01*
X860799Y215450D02*
X886199D01*
M02*
