G04*
G04 #@! TF.GenerationSoftware,Altium Limited,Altium Designer,23.7.1 (13)*
G04*
G04 Layer_Physical_Order=1*
G04 Layer_Color=255*
%FSLAX44Y44*%
%MOMM*%
G71*
G04*
G04 #@! TF.SameCoordinates,6B1A5528-D298-446E-BE42-4F112F928972*
G04*
G04*
G04 #@! TF.FilePolarity,Positive*
G04*
G01*
G75*
%ADD24C,1.0000*%
%ADD25C,0.6000*%
%ADD26C,0.5000*%
%ADD27C,1.5240*%
%ADD28C,1.7000*%
%ADD29R,1.7000X1.7000*%
%ADD30C,1.8000*%
%ADD31R,1.6050X1.6050*%
%ADD32O,1.6000X1.9000*%
%ADD33R,1.7000X1.7000*%
%ADD34O,1.6000X1.8000*%
%ADD35C,1.6000*%
%ADD36O,1.9000X1.6000*%
%ADD37R,1.6050X1.6050*%
G36*
X1003750Y1250D02*
X1002500Y0D01*
X-2099D01*
X-2995Y901D01*
X1000Y661750D01*
X1003750D01*
Y1250D01*
D02*
G37*
%LPC*%
G36*
X703000Y649362D02*
X703000Y649362D01*
X115750D01*
X115750Y649362D01*
X112356Y648915D01*
X109194Y647606D01*
X106478Y645522D01*
X106478Y645522D01*
X87378Y626422D01*
X85294Y623706D01*
X83984Y620544D01*
X83538Y617150D01*
X83538Y617150D01*
Y405362D01*
X58500D01*
X58500Y405362D01*
X55106Y404915D01*
X51944Y403605D01*
X49228Y401522D01*
X16299Y368593D01*
X14216Y365877D01*
X12906Y362715D01*
X12459Y359321D01*
X12459Y359321D01*
Y264500D01*
Y108429D01*
X12459Y108429D01*
X12906Y105035D01*
X14216Y101873D01*
X16299Y99157D01*
X56478Y58978D01*
X56478Y58978D01*
X59194Y56894D01*
X62356Y55585D01*
X65750Y55138D01*
X74116D01*
X74464Y55111D01*
X76684Y53628D01*
X79687Y52384D01*
X82875Y51750D01*
X86125D01*
X89313Y52384D01*
X92316Y53628D01*
X94472Y55069D01*
X95382Y55138D01*
X149116D01*
X149464Y55111D01*
X151684Y53628D01*
X154687Y52384D01*
X157875Y51750D01*
X161125D01*
X164313Y52384D01*
X167316Y53628D01*
X169472Y55069D01*
X170382Y55138D01*
X174516D01*
X174864Y55111D01*
X177084Y53628D01*
X180087Y52384D01*
X183275Y51750D01*
X186525D01*
X189713Y52384D01*
X192716Y53628D01*
X195418Y55434D01*
X196173Y56188D01*
X196495Y56213D01*
X270844D01*
X271396Y56187D01*
X271934Y55828D01*
X274937Y54584D01*
X278125Y53950D01*
X281375D01*
X284563Y54584D01*
X287566Y55828D01*
X289722Y57269D01*
X290632Y57338D01*
X294766D01*
X295114Y57312D01*
X297334Y55828D01*
X300337Y54584D01*
X303525Y53950D01*
X306775D01*
X309963Y54584D01*
X312966Y55828D01*
X315198Y57320D01*
X316081Y57388D01*
X360216D01*
X360564Y57361D01*
X362784Y55878D01*
X365787Y54634D01*
X368975Y54000D01*
X372225D01*
X375413Y54634D01*
X378416Y55878D01*
X380572Y57319D01*
X381482Y57388D01*
X385616D01*
X385964Y57361D01*
X388184Y55878D01*
X391187Y54634D01*
X394375Y54000D01*
X397625D01*
X400813Y54634D01*
X403816Y55878D01*
X406518Y57684D01*
X408816Y59982D01*
X410622Y62684D01*
X411866Y65687D01*
X412500Y68875D01*
Y72125D01*
X411866Y75313D01*
X410622Y78316D01*
X408816Y81018D01*
X406634Y83200D01*
X408816Y85382D01*
X410622Y88084D01*
X411866Y91087D01*
X412481Y94179D01*
X412966Y94490D01*
X413673Y94783D01*
X469978Y38478D01*
X469978Y38478D01*
X472694Y36395D01*
X475856Y35085D01*
X479250Y34638D01*
X479250Y34638D01*
X876500D01*
X876500Y34638D01*
X879894Y35085D01*
X883056Y36395D01*
X885772Y38478D01*
X974272Y126978D01*
X976356Y129694D01*
X977665Y132856D01*
X978112Y136250D01*
X978112Y136250D01*
Y409750D01*
X978112Y409750D01*
X977665Y413144D01*
X976356Y416306D01*
X974272Y419022D01*
X974272Y419022D01*
X903672Y489622D01*
X900956Y491706D01*
X897794Y493015D01*
X894400Y493462D01*
X894400Y493462D01*
X887458D01*
X887027Y494732D01*
X888456Y495828D01*
X911022Y518394D01*
X911022Y518394D01*
X913105Y521110D01*
X914415Y524272D01*
X914862Y527666D01*
Y620000D01*
X914862Y620000D01*
X914415Y623394D01*
X913105Y626556D01*
X911022Y629272D01*
X911022Y629272D01*
X895272Y645022D01*
X892556Y647105D01*
X889394Y648415D01*
X886000Y648862D01*
X886000Y648862D01*
X706522D01*
X706394Y648915D01*
X703000Y649362D01*
D02*
G37*
%LPD*%
G36*
X371000Y631250D02*
X369100Y631150D01*
X367400Y630850D01*
X365900Y630350D01*
X364600Y629650D01*
X363500Y628750D01*
X362600Y627650D01*
X361900Y626350D01*
X361400Y624850D01*
X361100Y623150D01*
X361000Y621250D01*
X351000D01*
X350900Y623150D01*
X350600Y624850D01*
X350100Y626350D01*
X349400Y627650D01*
X348500Y628750D01*
X347400Y629650D01*
X346100Y630350D01*
X344600Y630850D01*
X342900Y631150D01*
X341000Y631250D01*
X356000Y641250D01*
X371000Y631250D01*
D02*
G37*
G36*
X396274Y621964D02*
X370285Y595976D01*
X369112Y596462D01*
Y621857D01*
X369132Y622233D01*
X369243Y622862D01*
X369279Y622971D01*
X369388Y623007D01*
X370017Y623118D01*
X370393Y623138D01*
X395788D01*
X396274Y621964D01*
D02*
G37*
G36*
X499823Y563950D02*
X499529Y564197D01*
X499156Y564418D01*
X498706Y564613D01*
X498178Y564782D01*
X497571Y564925D01*
X496887Y565042D01*
X495283Y565198D01*
X494364Y565237D01*
X493367Y565250D01*
Y575250D01*
X494364Y575263D01*
X496887Y575458D01*
X497571Y575575D01*
X498178Y575718D01*
X498706Y575887D01*
X499156Y576082D01*
X499529Y576303D01*
X499823Y576550D01*
Y563950D01*
D02*
G37*
G36*
X495376Y557082D02*
X495413Y557045D01*
X498197Y555185D01*
X499700Y554562D01*
Y553188D01*
X498197Y552565D01*
X495413Y550705D01*
X495394Y550686D01*
X494442Y550612D01*
X477250D01*
X477250Y550612D01*
X473856Y550165D01*
X470694Y548856D01*
X467978Y546772D01*
X467978Y546772D01*
X444828Y523622D01*
X443696Y522146D01*
X442347Y522475D01*
X442260Y522966D01*
X476431Y557138D01*
X494800D01*
X495376Y557082D01*
D02*
G37*
G36*
X499823Y531200D02*
X499529Y531447D01*
X499156Y531668D01*
X498706Y531863D01*
X498178Y532032D01*
X497571Y532175D01*
X496887Y532292D01*
X495283Y532448D01*
X494364Y532487D01*
X493367Y532500D01*
Y542500D01*
X494364Y542513D01*
X496887Y542708D01*
X497571Y542825D01*
X498178Y542968D01*
X498706Y543137D01*
X499156Y543332D01*
X499529Y543553D01*
X499823Y543800D01*
Y531200D01*
D02*
G37*
G36*
X245740Y536583D02*
X245375Y535632D01*
X245053Y534583D01*
X244773Y533436D01*
X244344Y530849D01*
X244193Y529408D01*
X244000Y524499D01*
X234000Y524089D01*
X233974Y525733D01*
X233762Y528814D01*
X233576Y530252D01*
X233046Y532922D01*
X232702Y534153D01*
X232305Y535316D01*
X231855Y536410D01*
X231352Y537435D01*
X246148D01*
X245740Y536583D01*
D02*
G37*
G36*
X271576Y533905D02*
X271066Y533605D01*
X270617Y533106D01*
X270228Y532406D01*
X269899Y531506D01*
X269629Y530406D01*
X269419Y529105D01*
X269270Y527606D01*
X269150Y524006D01*
X259150D01*
X259120Y525905D01*
X258881Y529105D01*
X258671Y530406D01*
X258401Y531506D01*
X258072Y532406D01*
X257683Y533106D01*
X257234Y533605D01*
X256724Y533905D01*
X256155Y534006D01*
X272145D01*
X271576Y533905D01*
D02*
G37*
G36*
X220008Y536051D02*
X219579Y535433D01*
X219195Y534681D01*
X218857Y533794D01*
X218563Y532772D01*
X218315Y531616D01*
X218111Y530325D01*
X217840Y527340D01*
X217750Y523815D01*
X207750Y524786D01*
X207732Y526584D01*
X207300Y532591D01*
X207103Y533797D01*
X206599Y535853D01*
X206293Y536703D01*
X205951Y537435D01*
X220008Y536051D01*
D02*
G37*
G36*
X700106Y623085D02*
X703500Y622638D01*
X703500Y622638D01*
X880569D01*
X888638Y614569D01*
Y533097D01*
X873753Y518212D01*
X868884D01*
X868536Y518239D01*
X866316Y519722D01*
X863313Y520966D01*
X860125Y521600D01*
X856875D01*
X853687Y520966D01*
X850684Y519722D01*
X849546Y518962D01*
X848195Y518862D01*
X842741D01*
X842428Y518873D01*
X842149Y518898D01*
X840916Y519722D01*
X837913Y520966D01*
X834725Y521600D01*
X831475D01*
X828287Y520966D01*
X825284Y519722D01*
X824052Y518898D01*
X823772Y518873D01*
X823459Y518862D01*
X785508D01*
X785142Y518876D01*
X784925Y518897D01*
X783466Y519872D01*
X780463Y521116D01*
X777275Y521750D01*
X774025D01*
X770837Y521116D01*
X767834Y519872D01*
X766375Y518897D01*
X766158Y518876D01*
X765792Y518862D01*
X760108D01*
X759742Y518876D01*
X759525Y518897D01*
X758066Y519872D01*
X755063Y521116D01*
X751875Y521750D01*
X748625D01*
X745437Y521116D01*
X742434Y519872D01*
X739732Y518066D01*
X737434Y515768D01*
X735628Y513066D01*
X734384Y510063D01*
X733750Y506875D01*
Y503625D01*
X734384Y500437D01*
X735628Y497434D01*
X737434Y494732D01*
X738712Y493453D01*
X738887Y492877D01*
X738889Y492745D01*
X738839Y492483D01*
X738569Y491800D01*
X738558Y491794D01*
X738403Y491729D01*
X738251Y491677D01*
X738091Y491635D01*
X737914Y491603D01*
X737833Y491595D01*
X705500D01*
X702628Y491217D01*
X699952Y490108D01*
X697655Y488345D01*
X665154Y455845D01*
X611595D01*
Y597750D01*
X611217Y600622D01*
X610108Y603297D01*
X608345Y605595D01*
X591976Y621964D01*
X592462Y623138D01*
X699978D01*
X700106Y623085D01*
D02*
G37*
G36*
X341983Y623118D02*
X342612Y623007D01*
X342721Y622971D01*
X342757Y622862D01*
X342868Y622233D01*
X342888Y621857D01*
Y518486D01*
X341768Y517887D01*
X341566Y518022D01*
X338563Y519266D01*
X335375Y519900D01*
X332125D01*
X328937Y519266D01*
X325934Y518022D01*
X323778Y516581D01*
X322868Y516512D01*
X318734D01*
X318386Y516539D01*
X316166Y518022D01*
X313163Y519266D01*
X309975Y519900D01*
X306725D01*
X303537Y519266D01*
X300534Y518022D01*
X298378Y516581D01*
X297468Y516512D01*
X280781D01*
X277262Y520031D01*
Y525167D01*
X277289Y525975D01*
X280175D01*
Y533264D01*
X280182Y533298D01*
X280175Y533470D01*
Y533713D01*
X280214Y534006D01*
X280175Y534298D01*
Y558025D01*
X248125D01*
Y558025D01*
X246855Y557310D01*
X244903Y558354D01*
X241887Y559268D01*
X238750Y559577D01*
X235613Y559268D01*
X232597Y558354D01*
X229818Y556868D01*
X227381Y554869D01*
X226685Y554020D01*
X225415D01*
X224718Y554869D01*
X222282Y556868D01*
X219503Y558354D01*
X216486Y559268D01*
X213350Y559577D01*
X210213Y559268D01*
X207197Y558354D01*
X204418Y556868D01*
X201982Y554869D01*
X199982Y552432D01*
X198496Y549653D01*
X197582Y546637D01*
X197273Y543500D01*
Y540500D01*
X197582Y537364D01*
X198496Y534347D01*
X198570Y534210D01*
X198602Y534105D01*
X198626Y534067D01*
X198640Y534023D01*
X198825Y533626D01*
X198862Y533522D01*
X199191Y532181D01*
X199278Y531646D01*
X199638Y526644D01*
Y466250D01*
X199638Y466250D01*
X200085Y462856D01*
X201395Y459694D01*
X203478Y456978D01*
X235938Y424519D01*
Y402634D01*
X235911Y402286D01*
X234428Y400066D01*
X233184Y397063D01*
X232550Y393875D01*
Y390625D01*
X233184Y387437D01*
X234428Y384434D01*
X236234Y381732D01*
X238532Y379434D01*
X241234Y377628D01*
X244237Y376384D01*
X247425Y375750D01*
X250675D01*
X253863Y376384D01*
X256866Y377628D01*
X259568Y379434D01*
X261750Y381615D01*
X263932Y379434D01*
X266634Y377628D01*
X269637Y376384D01*
X272825Y375750D01*
X276075D01*
X279263Y376384D01*
X282266Y377628D01*
X284968Y379434D01*
X287150Y381615D01*
X289332Y379434D01*
X292034Y377628D01*
X295037Y376384D01*
X298225Y375750D01*
X301475D01*
X304663Y376384D01*
X307666Y377628D01*
X310368Y379434D01*
X312550Y381615D01*
X314732Y379434D01*
X317434Y377628D01*
X320437Y376384D01*
X323625Y375750D01*
X326875D01*
X330063Y376384D01*
X333066Y377628D01*
X335768Y379434D01*
X337231Y380896D01*
X338500Y380834D01*
X339282Y379881D01*
X341718Y377882D01*
X344497Y376396D01*
X347513Y375481D01*
X350650Y375173D01*
X353787Y375481D01*
X356802Y376396D01*
X359582Y377882D01*
X362018Y379881D01*
X362800Y380834D01*
X364069Y380896D01*
X365532Y379434D01*
X368234Y377628D01*
X371237Y376384D01*
X374425Y375750D01*
X377675D01*
X380863Y376384D01*
X383866Y377628D01*
X386568Y379434D01*
X388750Y381615D01*
X390932Y379434D01*
X393634Y377628D01*
X396637Y376384D01*
X399825Y375750D01*
X403075D01*
X406263Y376384D01*
X409266Y377628D01*
X411968Y379434D01*
X414150Y381615D01*
X416332Y379434D01*
X419034Y377628D01*
X422037Y376384D01*
X425225Y375750D01*
X428475D01*
X431663Y376384D01*
X434666Y377628D01*
X437368Y379434D01*
X438831Y380896D01*
X440100Y380834D01*
X440882Y379881D01*
X443318Y377882D01*
X446097Y376396D01*
X449113Y375481D01*
X452250Y375173D01*
X455387Y375481D01*
X458402Y376396D01*
X461182Y377882D01*
X463618Y379881D01*
X464315Y380730D01*
X465585D01*
X466282Y379881D01*
X468718Y377882D01*
X471497Y376396D01*
X474513Y375481D01*
X477650Y375173D01*
X480787Y375481D01*
X483802Y376396D01*
X486582Y377882D01*
X489018Y379881D01*
X490119Y381223D01*
X491387Y381285D01*
X492850Y379822D01*
X495471Y378071D01*
X498383Y376865D01*
X501474Y376250D01*
X504626D01*
X507717Y376865D01*
X510629Y378071D01*
X513249Y379822D01*
X515202Y381774D01*
X515634Y381732D01*
X517932Y379434D01*
X520634Y377628D01*
X523637Y376384D01*
X526825Y375750D01*
X530075D01*
X533263Y376384D01*
X536266Y377628D01*
X538968Y379434D01*
X541150Y381615D01*
X543332Y379434D01*
X546034Y377628D01*
X549037Y376384D01*
X552225Y375750D01*
X555475D01*
X558663Y376384D01*
X561666Y377628D01*
X563822Y379069D01*
X564731Y379138D01*
X774778D01*
X777438Y376478D01*
Y369673D01*
X776678Y368913D01*
X774818Y366129D01*
X773536Y363035D01*
X772883Y359751D01*
Y356402D01*
X773536Y353117D01*
X774818Y350024D01*
X776678Y347239D01*
X777438Y346479D01*
Y334055D01*
X776935Y333302D01*
X775653Y330209D01*
X775000Y326924D01*
Y323576D01*
X775653Y320291D01*
X776935Y317197D01*
X777438Y316445D01*
Y310429D01*
X777427Y310250D01*
X774050D01*
Y302513D01*
X774011Y302220D01*
X774050Y301927D01*
Y277250D01*
X807050D01*
Y301927D01*
X807088Y302220D01*
X807050Y302513D01*
Y310250D01*
X803690D01*
X803662Y310572D01*
Y312871D01*
X805205Y314413D01*
X807065Y317197D01*
X808347Y320291D01*
X809000Y323576D01*
Y326924D01*
X808347Y330209D01*
X807065Y333302D01*
X805205Y336087D01*
X803662Y337629D01*
Y348099D01*
X804948Y350024D01*
X806229Y353117D01*
X806883Y356402D01*
Y359751D01*
X806229Y363035D01*
X804948Y366129D01*
X803662Y368053D01*
Y377488D01*
X804836Y377974D01*
X823550Y359259D01*
Y274605D01*
X823928Y271734D01*
X825036Y269058D01*
X826799Y266760D01*
X845105Y248455D01*
X847403Y246691D01*
X850079Y245583D01*
X852950Y245205D01*
X857474D01*
Y222948D01*
X857436Y222655D01*
X857474Y222362D01*
Y222046D01*
X857469Y221920D01*
X857474Y221898D01*
Y214625D01*
X860483D01*
X860505Y214355D01*
X860588Y202914D01*
X858908Y200399D01*
X857730Y197556D01*
X857130Y194538D01*
Y191462D01*
X857730Y188444D01*
X858908Y185601D01*
X860617Y183043D01*
X862793Y180867D01*
X865351Y179158D01*
X868194Y177980D01*
X871212Y177380D01*
X874288D01*
X877306Y177980D01*
X880149Y179158D01*
X881867Y180306D01*
X883137Y179627D01*
Y140681D01*
X866319Y123862D01*
X548681D01*
X541562Y130981D01*
Y153265D01*
X541589Y153614D01*
X543072Y155834D01*
X544316Y158837D01*
X544950Y162025D01*
Y165275D01*
X544316Y168463D01*
X543072Y171466D01*
X541266Y174168D01*
X538968Y176466D01*
X536266Y178272D01*
X533263Y179516D01*
X530075Y180150D01*
X526825D01*
X523637Y179516D01*
X520634Y178272D01*
X517932Y176466D01*
X517335Y175870D01*
X516162Y176356D01*
Y188619D01*
X529431Y201888D01*
X731750D01*
X731750Y201888D01*
X735144Y202335D01*
X738306Y203645D01*
X741022Y205728D01*
X749022Y213728D01*
X749022Y213728D01*
X751105Y216444D01*
X752415Y219606D01*
X752862Y223000D01*
X752862Y223000D01*
Y283366D01*
X752889Y283714D01*
X754372Y285935D01*
X755616Y288937D01*
X756250Y292125D01*
Y295375D01*
X755616Y298563D01*
X754372Y301566D01*
X752931Y303722D01*
X752862Y304632D01*
Y338000D01*
X752862Y338000D01*
X752415Y341394D01*
X751105Y344556D01*
X749022Y347272D01*
X749022Y347272D01*
X728946Y367348D01*
X726230Y369432D01*
X723067Y370742D01*
X719674Y371188D01*
X719674Y371188D01*
X648812D01*
X648719Y371281D01*
X645935Y373141D01*
X642841Y374423D01*
X639557Y375076D01*
X636208D01*
X632924Y374423D01*
X629830Y373141D01*
X627046Y371281D01*
X624678Y368913D01*
X622817Y366129D01*
X621536Y363035D01*
X620883Y359751D01*
Y356402D01*
X621536Y353117D01*
X622817Y350024D01*
X624678Y347239D01*
X627046Y344871D01*
X629830Y343011D01*
X632483Y341912D01*
X632529Y340556D01*
X631948Y340315D01*
X629163Y338455D01*
X626795Y336087D01*
X624935Y333302D01*
X623653Y330209D01*
X623000Y326924D01*
Y323576D01*
X623653Y320291D01*
X624935Y317197D01*
X626795Y314413D01*
X629163Y312045D01*
X631735Y310327D01*
X631863Y309005D01*
X630334Y308372D01*
X627632Y306567D01*
X625450Y304385D01*
X623268Y306567D01*
X620566Y308372D01*
X617563Y309616D01*
X614375Y310250D01*
X611125D01*
X607937Y309616D01*
X604934Y308372D01*
X603549Y307447D01*
X602444Y307378D01*
X468763Y307598D01*
X467649Y308342D01*
X464806Y309520D01*
X461788Y310120D01*
X458712D01*
X455694Y309520D01*
X452851Y308342D01*
X450293Y306633D01*
X448117Y304457D01*
X446408Y301899D01*
X445230Y299056D01*
X444630Y296038D01*
Y292962D01*
X445230Y289944D01*
X446408Y287101D01*
X448117Y284543D01*
X450293Y282367D01*
X452851Y280658D01*
X455694Y279480D01*
X458712Y278880D01*
X461788D01*
X464806Y279480D01*
X467649Y280658D01*
X468675Y281344D01*
X469209Y281373D01*
X601891Y281155D01*
X602022Y281143D01*
X602232Y280934D01*
X604934Y279128D01*
X607937Y277884D01*
X611125Y277250D01*
X614375D01*
X617563Y277884D01*
X620566Y279128D01*
X623268Y280934D01*
X625450Y283116D01*
X627632Y280934D01*
X630334Y279128D01*
X633337Y277884D01*
X636525Y277250D01*
X639775D01*
X642963Y277884D01*
X645966Y279128D01*
X648668Y280934D01*
X650850Y283116D01*
X653032Y280934D01*
X655734Y279128D01*
X658737Y277884D01*
X661925Y277250D01*
X665175D01*
X668363Y277884D01*
X671366Y279128D01*
X674068Y280934D01*
X676250Y283116D01*
X678432Y280934D01*
X681134Y279128D01*
X684137Y277884D01*
X687325Y277250D01*
X690575D01*
X693763Y277884D01*
X696766Y279128D01*
X699468Y280934D01*
X700064Y281530D01*
X701238Y281044D01*
Y255862D01*
X448750D01*
X445356Y255415D01*
X442194Y254105D01*
X439478Y252022D01*
X439478Y252022D01*
X417578Y230122D01*
X415494Y227406D01*
X414184Y224244D01*
X413738Y220850D01*
X413738Y220850D01*
Y174034D01*
X413711Y173686D01*
X412228Y171466D01*
X410984Y168463D01*
X410350Y165275D01*
Y162025D01*
X410984Y158837D01*
X412228Y155834D01*
X414034Y153132D01*
X416332Y150834D01*
X419034Y149028D01*
X422037Y147784D01*
X425225Y147150D01*
X428475D01*
X431663Y147784D01*
X434666Y149028D01*
X437368Y150834D01*
X439550Y153015D01*
X441732Y150834D01*
X444434Y149028D01*
X447437Y147784D01*
X450625Y147150D01*
X453875D01*
X457063Y147784D01*
X460066Y149028D01*
X462768Y150834D01*
X463364Y151430D01*
X464538Y150944D01*
Y114600D01*
X464538Y114600D01*
X464985Y111206D01*
X466294Y108044D01*
X468378Y105328D01*
X499978Y73728D01*
X502694Y71645D01*
X505856Y70335D01*
X509250Y69888D01*
X509250Y69888D01*
X878000D01*
X878000Y69888D01*
X878453Y69948D01*
X879015Y68808D01*
X871069Y60862D01*
X484681D01*
X420495Y125048D01*
X419372Y126512D01*
X401212Y144672D01*
X399748Y145795D01*
X390286Y155257D01*
X390672Y155834D01*
X391916Y158837D01*
X392550Y162025D01*
Y165275D01*
X391916Y168463D01*
X390672Y171466D01*
X388866Y174168D01*
X386568Y176466D01*
X383866Y178272D01*
X380863Y179516D01*
X377675Y180150D01*
X374425D01*
X371237Y179516D01*
X368234Y178272D01*
X365532Y176466D01*
X363350Y174284D01*
X361168Y176466D01*
X358466Y178272D01*
X355463Y179516D01*
X352275Y180150D01*
X349025D01*
X345837Y179516D01*
X342834Y178272D01*
X340132Y176466D01*
X337950Y174284D01*
X335768Y176466D01*
X333066Y178272D01*
X330063Y179516D01*
X326875Y180150D01*
X323625D01*
X320437Y179516D01*
X317434Y178272D01*
X314732Y176466D01*
X312550Y174284D01*
X310368Y176466D01*
X307666Y178272D01*
X304663Y179516D01*
X301475Y180150D01*
X298225D01*
X295037Y179516D01*
X292034Y178272D01*
X289332Y176466D01*
X288986Y176120D01*
X287812Y176606D01*
Y246198D01*
X287972Y248522D01*
X288092Y249450D01*
X288508Y251548D01*
X288707Y252261D01*
X288951Y252974D01*
X289206Y253594D01*
X289592Y254381D01*
X289658Y254575D01*
X289804Y254848D01*
X290009Y255525D01*
X290143Y255847D01*
X290170Y256056D01*
X290719Y257864D01*
X291028Y261000D01*
Y264000D01*
X290719Y267137D01*
X289804Y270153D01*
X288318Y272933D01*
X286319Y275369D01*
X283882Y277368D01*
X281103Y278854D01*
X278087Y279769D01*
X274950Y280078D01*
X271814Y279769D01*
X268797Y278854D01*
X266018Y277368D01*
X263582Y275369D01*
X262885Y274520D01*
X261615D01*
X260919Y275369D01*
X258482Y277368D01*
X255703Y278854D01*
X252687Y279769D01*
X249550Y280078D01*
X246414Y279769D01*
X243398Y278854D01*
X241445Y277810D01*
X240175Y278526D01*
Y278526D01*
X216448D01*
X216156Y278564D01*
X215863Y278526D01*
X215620D01*
X215448Y278533D01*
X215414Y278526D01*
X208125D01*
Y275627D01*
X207930Y275613D01*
X38683D01*
Y353890D01*
X63931Y379138D01*
X86266D01*
X86614Y379111D01*
X88834Y377628D01*
X91837Y376384D01*
X95025Y375750D01*
X98275D01*
X101463Y376384D01*
X104466Y377628D01*
X107168Y379434D01*
X109350Y381615D01*
X111532Y379434D01*
X114234Y377628D01*
X117237Y376384D01*
X120425Y375750D01*
X123675D01*
X126863Y376384D01*
X129866Y377628D01*
X132568Y379434D01*
X134750Y381615D01*
X136932Y379434D01*
X139634Y377628D01*
X142637Y376384D01*
X145825Y375750D01*
X149075D01*
X152263Y376384D01*
X155266Y377628D01*
X157968Y379434D01*
X160150Y381615D01*
X162332Y379434D01*
X165034Y377628D01*
X168037Y376384D01*
X171225Y375750D01*
X174475D01*
X177663Y376384D01*
X180666Y377628D01*
X183368Y379434D01*
X185550Y381615D01*
X187732Y379434D01*
X190434Y377628D01*
X193437Y376384D01*
X196625Y375750D01*
X199875D01*
X203063Y376384D01*
X206066Y377628D01*
X208768Y379434D01*
X211066Y381732D01*
X212872Y384434D01*
X214116Y387437D01*
X214750Y390625D01*
Y393875D01*
X214116Y397063D01*
X212872Y400066D01*
X211066Y402768D01*
X208768Y405066D01*
X206066Y406872D01*
X203063Y408116D01*
X199875Y408750D01*
X196625D01*
X193437Y408116D01*
X190434Y406872D01*
X187732Y405066D01*
X185550Y402884D01*
X183368Y405066D01*
X180666Y406872D01*
X177663Y408116D01*
X174475Y408750D01*
X171225D01*
X168037Y408116D01*
X165034Y406872D01*
X162332Y405066D01*
X160150Y402884D01*
X157968Y405066D01*
X155266Y406872D01*
X152263Y408116D01*
X149075Y408750D01*
X145825D01*
X142637Y408116D01*
X139634Y406872D01*
X136932Y405066D01*
X134750Y402884D01*
X132568Y405066D01*
X129866Y406872D01*
X126863Y408116D01*
X123675Y408750D01*
X120425D01*
X117237Y408116D01*
X114234Y406872D01*
X111532Y405066D01*
X110935Y404470D01*
X109762Y404956D01*
Y611719D01*
X121181Y623138D01*
X341607D01*
X341983Y623118D01*
D02*
G37*
G36*
X499158Y501459D02*
X499024Y501562D01*
X498791Y501654D01*
X498459Y501735D01*
X498028Y501805D01*
X496870Y501913D01*
X494391Y501995D01*
X493367Y502000D01*
Y512000D01*
X494391Y512006D01*
X498459Y512265D01*
X498791Y512346D01*
X499024Y512439D01*
X499158Y512541D01*
Y501459D01*
D02*
G37*
G36*
X495376Y524332D02*
X495413Y524295D01*
X497331Y523014D01*
Y521486D01*
X495413Y520205D01*
X495361Y520153D01*
X494724Y520112D01*
X492500D01*
X489106Y519665D01*
X485944Y518356D01*
X483228Y516272D01*
X470228Y503272D01*
X468482Y500996D01*
X467212Y501427D01*
Y508919D01*
X482681Y524388D01*
X494800D01*
X495376Y524332D01*
D02*
G37*
G36*
X781577Y511395D02*
X781876Y511260D01*
X782257Y511140D01*
X782721Y511037D01*
X783267Y510949D01*
X784605Y510822D01*
X786273Y510758D01*
X787231Y510750D01*
X787961Y500750D01*
X787010Y500739D01*
X784637Y500577D01*
X784007Y500479D01*
X783456Y500360D01*
X782987Y500219D01*
X782598Y500057D01*
X782288Y499873D01*
X782060Y499667D01*
X781360Y511547D01*
X781577Y511395D01*
D02*
G37*
G36*
X769240Y499667D02*
X769012Y499873D01*
X768702Y500057D01*
X768313Y500219D01*
X767843Y500360D01*
X767293Y500479D01*
X766663Y500577D01*
X764290Y500739D01*
X763339Y500750D01*
X764069Y510750D01*
X765027Y510758D01*
X766694Y510822D01*
X768033Y510949D01*
X768579Y511037D01*
X769043Y511140D01*
X769424Y511260D01*
X769723Y511395D01*
X769940Y511547D01*
X769240Y499667D01*
D02*
G37*
G36*
X756177Y511395D02*
X756476Y511260D01*
X756857Y511140D01*
X757321Y511037D01*
X757867Y510949D01*
X759205Y510822D01*
X760873Y510758D01*
X761831Y510750D01*
X762561Y500750D01*
X761610Y500739D01*
X759237Y500577D01*
X758606Y500479D01*
X758056Y500360D01*
X757587Y500219D01*
X757197Y500057D01*
X756888Y499873D01*
X756660Y499667D01*
X755960Y511547D01*
X756177Y511395D01*
D02*
G37*
G36*
X851993Y499632D02*
X851764Y499844D01*
X851456Y500034D01*
X851067Y500202D01*
X850598Y500347D01*
X850049Y500470D01*
X849419Y500571D01*
X847919Y500705D01*
X846097Y500750D01*
X847050Y510750D01*
X848008Y510757D01*
X851556Y511019D01*
X852017Y511116D01*
X852395Y511228D01*
X852690Y511355D01*
X852903Y511497D01*
X851993Y499632D01*
D02*
G37*
G36*
X838910Y511355D02*
X839205Y511228D01*
X839583Y511116D01*
X840043Y511019D01*
X840587Y510937D01*
X841924Y510817D01*
X843592Y510757D01*
X844550Y510750D01*
X845502Y500750D01*
X844552Y500739D01*
X842181Y500571D01*
X841551Y500470D01*
X841002Y500347D01*
X840533Y500202D01*
X840144Y500034D01*
X839836Y499844D01*
X839607Y499632D01*
X838697Y511497D01*
X838910Y511355D01*
D02*
G37*
G36*
X826593Y499632D02*
X826364Y499844D01*
X826056Y500034D01*
X825667Y500202D01*
X825198Y500347D01*
X824649Y500470D01*
X824019Y500571D01*
X821648Y500739D01*
X820697Y500750D01*
X821650Y510750D01*
X822608Y510757D01*
X824276Y510817D01*
X825613Y510937D01*
X826156Y511019D01*
X826617Y511116D01*
X826995Y511228D01*
X827290Y511355D01*
X827503Y511497D01*
X826593Y499632D01*
D02*
G37*
G36*
X864797Y510869D02*
X865104Y510708D01*
X865493Y510565D01*
X865962Y510442D01*
X866512Y510337D01*
X867142Y510252D01*
X868646Y510138D01*
X870474Y510100D01*
Y500100D01*
X869520Y500090D01*
X866512Y499863D01*
X865962Y499758D01*
X865493Y499635D01*
X865104Y499492D01*
X864797Y499330D01*
X864570Y499150D01*
Y511050D01*
X864797Y510869D01*
D02*
G37*
G36*
X340047Y509170D02*
X340354Y509008D01*
X340743Y508866D01*
X341212Y508742D01*
X341762Y508638D01*
X342393Y508552D01*
X343896Y508438D01*
X345724Y508400D01*
Y498400D01*
X344770Y498391D01*
X341762Y498162D01*
X341212Y498058D01*
X340743Y497934D01*
X340354Y497792D01*
X340047Y497631D01*
X339820Y497450D01*
Y509350D01*
X340047Y509170D01*
D02*
G37*
G36*
X327680Y497450D02*
X327453Y497631D01*
X327146Y497792D01*
X326757Y497934D01*
X326288Y498058D01*
X325738Y498162D01*
X325107Y498248D01*
X323604Y498362D01*
X321776Y498400D01*
Y508400D01*
X322730Y508410D01*
X325738Y508638D01*
X326288Y508742D01*
X326757Y508866D01*
X327146Y509008D01*
X327453Y509170D01*
X327680Y509350D01*
Y497450D01*
D02*
G37*
G36*
X314647Y509170D02*
X314954Y509008D01*
X315343Y508866D01*
X315812Y508742D01*
X316362Y508638D01*
X316992Y508552D01*
X318496Y508438D01*
X320324Y508400D01*
Y498400D01*
X319370Y498391D01*
X316362Y498162D01*
X315812Y498058D01*
X315343Y497934D01*
X314954Y497792D01*
X314647Y497631D01*
X314420Y497450D01*
Y509350D01*
X314647Y509170D01*
D02*
G37*
G36*
X302280Y497450D02*
X302053Y497631D01*
X301746Y497792D01*
X301357Y497934D01*
X300888Y498058D01*
X300338Y498162D01*
X299708Y498248D01*
X298204Y498362D01*
X296376Y498400D01*
Y508400D01*
X297330Y508410D01*
X300338Y508638D01*
X300888Y508742D01*
X301357Y508866D01*
X301746Y509008D01*
X302053Y509170D01*
X302280Y509350D01*
Y497450D01*
D02*
G37*
G36*
X818500Y500750D02*
X816600Y500650D01*
X814900Y500350D01*
X813400Y499850D01*
X812100Y499150D01*
X811000Y498250D01*
X810100Y497150D01*
X809400Y495850D01*
X808900Y494350D01*
X808600Y492650D01*
X808500Y490750D01*
X798500D01*
X798400Y492650D01*
X798100Y494350D01*
X797600Y495850D01*
X796900Y497150D01*
X796000Y498250D01*
X794900Y499150D01*
X793600Y499850D01*
X792100Y500350D01*
X790400Y500650D01*
X788500Y500750D01*
X803500Y510750D01*
X818500Y500750D01*
D02*
G37*
G36*
X362355Y495410D02*
Y440796D01*
X347489Y425929D01*
X346286Y426523D01*
X346612Y429000D01*
X346612Y429000D01*
Y467378D01*
X346628Y467574D01*
X348372Y470184D01*
X349616Y473187D01*
X350250Y476375D01*
Y479625D01*
X349616Y482813D01*
X348372Y485816D01*
X346566Y488518D01*
X345970Y489114D01*
X346456Y490288D01*
X350142D01*
X350142Y490288D01*
X353536Y490735D01*
X356698Y492044D01*
X359414Y494128D01*
X361182Y495896D01*
X362355Y495410D01*
D02*
G37*
G36*
X743743Y474382D02*
X743203Y474974D01*
X742634Y475504D01*
X742033Y475972D01*
X741403Y476377D01*
X740742Y476720D01*
X740051Y477001D01*
X739329Y477219D01*
X738577Y477375D01*
X737794Y477469D01*
X736981Y477500D01*
X737474Y483500D01*
X738273Y483527D01*
X739053Y483610D01*
X739817Y483747D01*
X740561Y483940D01*
X741288Y484187D01*
X741997Y484489D01*
X742688Y484846D01*
X743361Y485258D01*
X744016Y485725D01*
X744653Y486247D01*
X743743Y474382D01*
D02*
G37*
G36*
X867069Y487634D02*
X867370Y487155D01*
X867869Y486732D01*
X868569Y486365D01*
X869470Y486055D01*
X870570Y485801D01*
X871870Y485604D01*
X873370Y485463D01*
X876970Y485350D01*
Y475350D01*
X875070Y475309D01*
X871870Y474979D01*
X870570Y474691D01*
X869470Y474320D01*
X868569Y473867D01*
X867869Y473331D01*
X867370Y472714D01*
X867069Y472013D01*
X866970Y471231D01*
Y488170D01*
X867069Y487634D01*
D02*
G37*
G36*
X838869Y473403D02*
X838708Y473096D01*
X838566Y472707D01*
X838442Y472238D01*
X838337Y471688D01*
X838252Y471058D01*
X838138Y469553D01*
X838100Y467726D01*
X828100D01*
X828091Y468680D01*
X827862Y471688D01*
X827758Y472238D01*
X827635Y472707D01*
X827492Y473096D01*
X827330Y473403D01*
X827150Y473630D01*
X839050D01*
X838869Y473403D01*
D02*
G37*
G36*
X314119Y471703D02*
X313958Y471396D01*
X313815Y471007D01*
X313692Y470538D01*
X313587Y469988D01*
X313502Y469357D01*
X313388Y467854D01*
X313350Y466026D01*
X303350D01*
X303340Y466980D01*
X303113Y469988D01*
X303008Y470538D01*
X302885Y471007D01*
X302742Y471396D01*
X302581Y471703D01*
X302400Y471930D01*
X314300D01*
X314119Y471703D01*
D02*
G37*
G36*
X339519Y471757D02*
X339325Y471529D01*
X339152Y471220D01*
X338999Y470830D01*
X338867Y470360D01*
X338755Y469810D01*
X338663Y469179D01*
X338541Y467676D01*
X338500Y465851D01*
X328500Y466215D01*
X328491Y467171D01*
X328281Y470179D01*
X328185Y470728D01*
X328071Y471195D01*
X327939Y471580D01*
X327790Y471885D01*
X327624Y472107D01*
X339519Y471757D01*
D02*
G37*
G36*
X510737Y468952D02*
X510426Y468683D01*
X510148Y468333D01*
X509902Y467903D01*
X509689Y467393D01*
X509509Y466802D01*
X509362Y466131D01*
X509248Y465380D01*
X509166Y464548D01*
X509100Y462644D01*
X499100Y464673D01*
X499092Y465682D01*
X498815Y469480D01*
X498712Y469989D01*
X498593Y470415D01*
X498458Y470757D01*
X498307Y471016D01*
X510737Y468952D01*
D02*
G37*
G36*
X784125Y471284D02*
X784142Y468979D01*
X784150Y461776D01*
X774150D01*
X774104Y463601D01*
X773966Y465234D01*
X773736Y466674D01*
X773413Y467923D01*
X772999Y468979D01*
X772493Y469844D01*
X771894Y470516D01*
X771203Y470996D01*
X770421Y471284D01*
X769546Y471381D01*
X784119D01*
X784125Y471284D01*
D02*
G37*
G36*
X460842Y578635D02*
X419428Y537222D01*
X417345Y534506D01*
X416035Y531344D01*
X415588Y527950D01*
X415588Y527950D01*
Y456490D01*
X415550Y455631D01*
X415305Y453156D01*
X415171Y452369D01*
X415017Y451703D01*
X414881Y451259D01*
X414807Y451074D01*
X414647Y450847D01*
X414608Y450773D01*
X414533Y450681D01*
X413815Y449339D01*
X412545Y449657D01*
Y541604D01*
X450846Y579905D01*
X460316D01*
X460842Y578635D01*
D02*
G37*
G36*
X509130Y456344D02*
X509370Y453144D01*
X509580Y451844D01*
X509849Y450744D01*
X510178Y449844D01*
X510568Y449144D01*
X511017Y448644D01*
X511526Y448344D01*
X512095Y448244D01*
X496106D01*
X496675Y448344D01*
X497184Y448644D01*
X497633Y449144D01*
X498022Y449844D01*
X498352Y450744D01*
X498621Y451844D01*
X498831Y453144D01*
X498981Y454644D01*
X499100Y458244D01*
X509100D01*
X509130Y456344D01*
D02*
G37*
G36*
X589405Y593154D02*
Y451000D01*
X589783Y448128D01*
X589907Y447830D01*
X588830Y447110D01*
X582845Y453096D01*
Y585000D01*
X582467Y587872D01*
X581358Y590547D01*
X579595Y592845D01*
X564459Y607982D01*
X564945Y609155D01*
X573404D01*
X589405Y593154D01*
D02*
G37*
G36*
X484500Y457245D02*
X484516Y455421D01*
X484900Y449417D01*
X485076Y448239D01*
X485523Y446268D01*
X485795Y445477D01*
X486099Y444814D01*
X472042Y446198D01*
X472509Y446861D01*
X472927Y447651D01*
X473296Y448567D01*
X473615Y449611D01*
X473885Y450782D01*
X474107Y452079D01*
X474402Y455056D01*
X474475Y456735D01*
X474500Y458541D01*
X484500Y457245D01*
D02*
G37*
G36*
X459100D02*
X459116Y455421D01*
X459500Y449417D01*
X459676Y448239D01*
X460123Y446268D01*
X460395Y445477D01*
X460699Y444814D01*
X446642Y446198D01*
X447109Y446861D01*
X447527Y447651D01*
X447896Y448567D01*
X448215Y449611D01*
X448485Y450782D01*
X448707Y452079D01*
X449002Y455056D01*
X449075Y456735D01*
X449100Y458541D01*
X459100Y457245D01*
D02*
G37*
G36*
X433700D02*
X433716Y455421D01*
X434100Y449417D01*
X434276Y448239D01*
X434723Y446268D01*
X434995Y445477D01*
X435299Y444814D01*
X421242Y446198D01*
X421709Y446861D01*
X422127Y447651D01*
X422495Y448567D01*
X422815Y449611D01*
X423086Y450782D01*
X423307Y452079D01*
X423602Y455056D01*
X423675Y456735D01*
X423700Y458541D01*
X433700Y457245D01*
D02*
G37*
G36*
X254878Y505328D02*
X266078Y494128D01*
X268794Y492044D01*
X271956Y490735D01*
X275350Y490288D01*
X275350Y490288D01*
X295644D01*
X296130Y489114D01*
X295534Y488518D01*
X293728Y485816D01*
X292484Y482813D01*
X291850Y479625D01*
Y476375D01*
X292484Y473187D01*
X293728Y470184D01*
X295169Y468028D01*
X295238Y467118D01*
Y450531D01*
X290578Y445872D01*
X288832Y443596D01*
X287562Y444027D01*
Y452958D01*
X287115Y456352D01*
X285805Y459514D01*
X283722Y462229D01*
X283722Y462230D01*
X252112Y493839D01*
Y506847D01*
X253382Y507278D01*
X254878Y505328D01*
D02*
G37*
G36*
X227645Y481852D02*
X229728Y479136D01*
X261338Y447527D01*
Y437377D01*
X260068Y436946D01*
X258322Y439222D01*
X258321Y439222D01*
X225862Y471681D01*
Y482836D01*
X227132Y483089D01*
X227645Y481852D01*
D02*
G37*
G36*
X737277Y469404D02*
X737338Y469392D01*
X737357Y469386D01*
X737361Y469383D01*
X737395Y469357D01*
X737461Y469295D01*
X737775Y468950D01*
X738033Y468732D01*
X739732Y467034D01*
X742434Y465228D01*
X745437Y463984D01*
X748625Y463350D01*
X751875D01*
X755063Y463984D01*
X757880Y465151D01*
X759118Y464665D01*
X759150Y464648D01*
Y463350D01*
X766027D01*
X766038Y463226D01*
Y461777D01*
X766038Y461776D01*
X766485Y458383D01*
X767794Y455220D01*
X769878Y452505D01*
X787865Y434518D01*
X787379Y433345D01*
X674279D01*
X674026Y434615D01*
X675297Y435141D01*
X677595Y436905D01*
X710096Y469405D01*
X737269D01*
X737277Y469404D01*
D02*
G37*
G36*
X460219Y434702D02*
X459790Y433644D01*
X459412Y432510D01*
X459084Y431299D01*
X458579Y428650D01*
X458402Y427212D01*
X458200Y424107D01*
X458175Y422440D01*
X448175Y422646D01*
X448152Y424358D01*
X447811Y428950D01*
X447607Y430299D01*
X447061Y432725D01*
X446720Y433802D01*
X446334Y434789D01*
X445902Y435685D01*
X460699D01*
X460219Y434702D01*
D02*
G37*
G36*
X434819D02*
X434390Y433644D01*
X434012Y432510D01*
X433684Y431299D01*
X433179Y428650D01*
X433002Y427212D01*
X432800Y424107D01*
X432775Y422440D01*
X422775Y422646D01*
X422752Y424358D01*
X422411Y428950D01*
X422207Y430299D01*
X421661Y432725D01*
X421320Y433802D01*
X420934Y434789D01*
X420502Y435685D01*
X435299D01*
X434819Y434702D01*
D02*
G37*
G36*
X485619D02*
X485190Y433644D01*
X484812Y432510D01*
X484483Y431299D01*
X483979Y428650D01*
X483802Y427212D01*
X483600Y424107D01*
X483575Y422440D01*
X473575Y422646D01*
X473552Y424358D01*
X473211Y428950D01*
X473007Y430299D01*
X472461Y432725D01*
X472120Y433802D01*
X471734Y434789D01*
X471302Y435685D01*
X486099D01*
X485619Y434702D01*
D02*
G37*
G36*
X511326Y432155D02*
X510639Y431855D01*
X510032Y431355D01*
X509506Y430655D01*
X509061Y429755D01*
X508697Y428655D01*
X508414Y427355D01*
X508212Y425855D01*
X508090Y424155D01*
X508050Y422255D01*
X498050D01*
X498031Y424155D01*
X497739Y428655D01*
X497564Y429755D01*
X497350Y430655D01*
X497097Y431355D01*
X496806Y431855D01*
X496475Y432155D01*
X496106Y432255D01*
X512095D01*
X511326Y432155D01*
D02*
G37*
G36*
X541155Y570654D02*
Y430750D01*
X541533Y427878D01*
X542641Y425202D01*
X544405Y422905D01*
X557709Y409600D01*
X557083Y408430D01*
X555475Y408750D01*
X552225D01*
X549037Y408116D01*
X546034Y406872D01*
X543332Y405066D01*
X541150Y402884D01*
X538968Y405066D01*
X536266Y406872D01*
X533263Y408116D01*
X530075Y408750D01*
X526825D01*
X523637Y408116D01*
X520634Y406872D01*
X517932Y405066D01*
X517335Y404470D01*
X516162Y404956D01*
Y423904D01*
X516185Y424224D01*
X520125D01*
Y431962D01*
X520164Y432255D01*
X520125Y432548D01*
Y447951D01*
X520164Y448244D01*
X520125Y448537D01*
Y448779D01*
X520133Y448952D01*
X520125Y448985D01*
Y456274D01*
X517227D01*
X517212Y456469D01*
Y463760D01*
X517218Y463927D01*
X518779Y465488D01*
X520640Y468272D01*
X521921Y471366D01*
X522575Y474650D01*
Y477999D01*
X521921Y481283D01*
X520640Y484377D01*
X518779Y487161D01*
X516412Y489529D01*
X514652Y490705D01*
X514561Y491024D01*
X514700Y492201D01*
X517087Y493795D01*
X519454Y496163D01*
X521315Y498948D01*
X522597Y502041D01*
X523250Y505326D01*
Y508675D01*
X522597Y511959D01*
X521315Y515053D01*
X519454Y517837D01*
X517087Y520205D01*
X515169Y521486D01*
Y523014D01*
X517087Y524295D01*
X519454Y526663D01*
X521315Y529448D01*
X522597Y532541D01*
X523250Y535826D01*
Y539174D01*
X522597Y542459D01*
X521315Y545553D01*
X519454Y548337D01*
X517087Y550705D01*
X514302Y552565D01*
X512799Y553188D01*
Y554562D01*
X514302Y555185D01*
X517087Y557045D01*
X519454Y559413D01*
X521315Y562198D01*
X522597Y565291D01*
X523250Y568576D01*
Y571924D01*
X522597Y575209D01*
X521315Y578303D01*
X520993Y578785D01*
X521591Y579905D01*
X531904D01*
X541155Y570654D01*
D02*
G37*
G36*
X353680Y405113D02*
X353918Y402493D01*
X354126Y401429D01*
X354394Y400528D01*
X354721Y399792D01*
X355108Y399219D01*
X355555Y398809D01*
X356061Y398564D01*
X356626Y398482D01*
X344674D01*
X345239Y398564D01*
X345745Y398809D01*
X346191Y399219D01*
X346578Y399792D01*
X346906Y400528D01*
X347174Y401429D01*
X347382Y402493D01*
X347531Y403721D01*
X347620Y405113D01*
X347650Y406668D01*
X353650D01*
X353680Y405113D01*
D02*
G37*
G36*
X404479Y404497D02*
X404568Y403714D01*
X404715Y402956D01*
X404922Y402222D01*
X405187Y401512D01*
X405512Y400825D01*
X405895Y400163D01*
X406338Y399525D01*
X406839Y398910D01*
X407400Y398320D01*
X395500D01*
X396060Y398910D01*
X396562Y399525D01*
X397004Y400163D01*
X397388Y400825D01*
X397712Y401512D01*
X397978Y402222D01*
X398184Y402956D01*
X398332Y403714D01*
X398420Y404497D01*
X398450Y405303D01*
X404450D01*
X404479Y404497D01*
D02*
G37*
G36*
X379079D02*
X379168Y403714D01*
X379315Y402956D01*
X379522Y402222D01*
X379787Y401512D01*
X380112Y400825D01*
X380495Y400163D01*
X380938Y399525D01*
X381439Y398910D01*
X382000Y398320D01*
X370100D01*
X370660Y398910D01*
X371162Y399525D01*
X371604Y400163D01*
X371988Y400825D01*
X372312Y401512D01*
X372578Y402222D01*
X372784Y402956D01*
X372932Y403714D01*
X373020Y404497D01*
X373050Y405303D01*
X379050D01*
X379079Y404497D01*
D02*
G37*
G36*
X330259Y403270D02*
X330487Y400262D01*
X330592Y399712D01*
X330715Y399243D01*
X330858Y398854D01*
X331019Y398547D01*
X331200Y398320D01*
X319300D01*
X319480Y398547D01*
X319642Y398854D01*
X319784Y399243D01*
X319908Y399712D01*
X320012Y400262D01*
X320098Y400892D01*
X320212Y402396D01*
X320250Y404224D01*
X330250D01*
X330259Y403270D01*
D02*
G37*
G36*
X304859D02*
X305087Y400262D01*
X305192Y399712D01*
X305315Y399243D01*
X305458Y398854D01*
X305619Y398547D01*
X305800Y398320D01*
X293900D01*
X294080Y398547D01*
X294242Y398854D01*
X294384Y399243D01*
X294508Y399712D01*
X294612Y400262D01*
X294698Y400892D01*
X294812Y402396D01*
X294850Y404224D01*
X304850D01*
X304859Y403270D01*
D02*
G37*
G36*
X279459D02*
X279687Y400262D01*
X279792Y399712D01*
X279915Y399243D01*
X280058Y398854D01*
X280219Y398547D01*
X280400Y398320D01*
X268500D01*
X268680Y398547D01*
X268842Y398854D01*
X268984Y399243D01*
X269108Y399712D01*
X269212Y400262D01*
X269298Y400892D01*
X269412Y402396D01*
X269450Y404224D01*
X279450D01*
X279459Y403270D01*
D02*
G37*
G36*
X254059D02*
X254287Y400262D01*
X254392Y399712D01*
X254515Y399243D01*
X254658Y398854D01*
X254819Y398547D01*
X255000Y398320D01*
X243100D01*
X243280Y398547D01*
X243442Y398854D01*
X243584Y399243D01*
X243708Y399712D01*
X243812Y400262D01*
X243898Y400892D01*
X244012Y402396D01*
X244050Y404224D01*
X254050D01*
X254059Y403270D01*
D02*
G37*
G36*
X101659D02*
X101887Y400262D01*
X101992Y399712D01*
X102115Y399243D01*
X102258Y398854D01*
X102419Y398547D01*
X102600Y398320D01*
X90700D01*
X90880Y398547D01*
X91042Y398854D01*
X91184Y399243D01*
X91308Y399712D01*
X91412Y400262D01*
X91498Y400892D01*
X91612Y402396D01*
X91650Y404224D01*
X101650D01*
X101659Y403270D01*
D02*
G37*
G36*
X508056Y402388D02*
X508266Y399098D01*
X508344Y398690D01*
X508434Y398364D01*
X508536Y398122D01*
X508650Y397963D01*
X497450D01*
X497564Y398122D01*
X497666Y398364D01*
X497756Y398690D01*
X497834Y399098D01*
X497900Y399590D01*
X497996Y400823D01*
X498050Y403295D01*
X508050D01*
X508056Y402388D01*
D02*
G37*
G36*
X432775Y403445D02*
X432781Y402484D01*
X433009Y398947D01*
X433094Y398493D01*
X433191Y398123D01*
X433302Y397837D01*
X433425Y397636D01*
X421596Y398932D01*
X421820Y399157D01*
X422020Y399463D01*
X422197Y399850D01*
X422351Y400317D01*
X422480Y400865D01*
X422586Y401493D01*
X422728Y402990D01*
X422763Y403859D01*
X422775Y404809D01*
X432775Y403445D01*
D02*
G37*
G36*
X483575Y408593D02*
X483590Y406756D01*
X484105Y399602D01*
X484297Y398577D01*
X484518Y397688D01*
X484768Y396933D01*
X485048Y396314D01*
X470992Y397699D01*
X471482Y398390D01*
X471922Y399203D01*
X472309Y400138D01*
X472645Y401195D01*
X472929Y402375D01*
X473162Y403677D01*
X473472Y406648D01*
X473549Y408317D01*
X473575Y410108D01*
X483575Y408593D01*
D02*
G37*
G36*
X458175Y408593D02*
X458190Y406756D01*
X458705Y399602D01*
X458897Y398577D01*
X459118Y397688D01*
X459368Y396933D01*
X459648Y396314D01*
X445592Y397699D01*
X446082Y398390D01*
X446521Y399203D01*
X446909Y400138D01*
X447245Y401195D01*
X447529Y402375D01*
X447762Y403677D01*
X448072Y406648D01*
X448149Y408317D01*
X448175Y410108D01*
X458175Y408593D01*
D02*
G37*
G36*
X560147Y398019D02*
X560454Y397858D01*
X560843Y397715D01*
X561312Y397592D01*
X561862Y397487D01*
X562492Y397402D01*
X563996Y397288D01*
X565824Y397250D01*
Y387250D01*
X564870Y387240D01*
X561862Y387012D01*
X561312Y386908D01*
X560843Y386784D01*
X560454Y386642D01*
X560147Y386480D01*
X559920Y386300D01*
Y398200D01*
X560147Y398019D01*
D02*
G37*
G36*
X90580Y386300D02*
X90353Y386480D01*
X90046Y386642D01*
X89657Y386784D01*
X89188Y386908D01*
X88638Y387012D01*
X88007Y387098D01*
X86503Y387212D01*
X84676Y387250D01*
Y397250D01*
X85630Y397259D01*
X88638Y397487D01*
X89188Y397592D01*
X89657Y397715D01*
X90046Y397858D01*
X90353Y398019D01*
X90580Y398200D01*
Y386300D01*
D02*
G37*
G36*
X726638Y332569D02*
Y327319D01*
X725368Y326888D01*
X723622Y329164D01*
X717764Y335022D01*
X715048Y337105D01*
X711886Y338415D01*
X708492Y338862D01*
X708492Y338862D01*
X650227D01*
X648053Y340315D01*
X645399Y341414D01*
X645354Y342770D01*
X645935Y343011D01*
X648719Y344871D01*
X648812Y344964D01*
X714243D01*
X726638Y332569D01*
D02*
G37*
G36*
X701238Y306456D02*
X700064Y305970D01*
X699468Y306567D01*
X696766Y308372D01*
X693763Y309616D01*
X690575Y310250D01*
X687325D01*
X684137Y309616D01*
X681134Y308372D01*
X678432Y306567D01*
X676250Y304385D01*
X674068Y306567D01*
X671366Y308372D01*
X668363Y309616D01*
X665175Y310250D01*
X661925D01*
X658737Y309616D01*
X655734Y308372D01*
X653032Y306567D01*
X650850Y304385D01*
X648668Y306567D01*
X646360Y308109D01*
X646369Y309300D01*
X646469Y309529D01*
X648053Y310185D01*
X650837Y312045D01*
X651429Y312638D01*
X701238D01*
Y306456D01*
D02*
G37*
G36*
X795585Y310320D02*
X795862Y307120D01*
X796105Y305820D01*
X796417Y304720D01*
X796799Y303820D01*
X797250Y303120D01*
X797770Y302620D01*
X798360Y302320D01*
X799019Y302220D01*
X782081D01*
X782740Y302320D01*
X783329Y302620D01*
X783850Y303120D01*
X784301Y303820D01*
X784683Y304720D01*
X784995Y305820D01*
X785238Y307120D01*
X785411Y308620D01*
X785515Y310320D01*
X785550Y312220D01*
X795550D01*
X795585Y310320D01*
D02*
G37*
G36*
X744760Y304770D02*
X744987Y301762D01*
X745092Y301212D01*
X745216Y300743D01*
X745358Y300354D01*
X745519Y300047D01*
X745700Y299820D01*
X733800D01*
X733980Y300047D01*
X734142Y300354D01*
X734285Y300743D01*
X734408Y301212D01*
X734512Y301762D01*
X734598Y302393D01*
X734712Y303897D01*
X734750Y305724D01*
X744750D01*
X744760Y304770D01*
D02*
G37*
G36*
X719360D02*
X719587Y301762D01*
X719692Y301212D01*
X719816Y300743D01*
X719958Y300354D01*
X720119Y300047D01*
X720300Y299820D01*
X708400D01*
X708580Y300047D01*
X708742Y300354D01*
X708885Y300743D01*
X709008Y301212D01*
X709112Y301762D01*
X709198Y302393D01*
X709312Y303897D01*
X709350Y305724D01*
X719350D01*
X719360Y304770D01*
D02*
G37*
G36*
X883137Y375070D02*
Y296478D01*
X882048Y295825D01*
X881152Y296304D01*
X878136Y297218D01*
X874999Y297527D01*
X871999D01*
X868863Y297218D01*
X865847Y296304D01*
X863067Y294818D01*
X862274Y294167D01*
X860095Y296346D01*
Y369299D01*
X859717Y372171D01*
X858608Y374846D01*
X856845Y377144D01*
X839275Y394715D01*
X839761Y395888D01*
X862319D01*
X883137Y375070D01*
D02*
G37*
G36*
X465808Y299761D02*
X466000Y299704D01*
X466277Y299654D01*
X466638Y299610D01*
X468229Y299517D01*
X470580Y299483D01*
X470564Y289483D01*
X469696Y289481D01*
X465983Y289277D01*
X465791Y289220D01*
X465683Y289157D01*
X465700Y299825D01*
X465808Y299761D01*
D02*
G37*
G36*
X606332Y288177D02*
X606103Y288383D01*
X605795Y288568D01*
X605406Y288731D01*
X604936Y288872D01*
X604386Y288992D01*
X603756Y289091D01*
X602255Y289223D01*
X600432Y289269D01*
X601177Y299268D01*
X602135Y299275D01*
X605142Y299461D01*
X605688Y299548D01*
X606152Y299651D01*
X606533Y299770D01*
X606833Y299905D01*
X607050Y300056D01*
X606332Y288177D01*
D02*
G37*
G36*
X745519Y287453D02*
X745358Y287146D01*
X745216Y286758D01*
X745092Y286289D01*
X744987Y285739D01*
X744902Y285108D01*
X744788Y283604D01*
X744750Y281776D01*
X734750D01*
X734741Y282730D01*
X734512Y285739D01*
X734408Y286289D01*
X734285Y286758D01*
X734142Y287146D01*
X733980Y287453D01*
X733800Y287680D01*
X745700D01*
X745519Y287453D01*
D02*
G37*
G36*
X720119D02*
X719958Y287146D01*
X719816Y286758D01*
X719692Y286289D01*
X719587Y285739D01*
X719502Y285108D01*
X719388Y283604D01*
X719350Y281776D01*
X709350D01*
X709341Y282730D01*
X709112Y285739D01*
X709008Y286289D01*
X708885Y286758D01*
X708742Y287146D01*
X708580Y287453D01*
X708400Y287680D01*
X720300D01*
X720119Y287453D01*
D02*
G37*
G36*
X865583Y276754D02*
X865532Y277124D01*
X865347Y277455D01*
X865029Y277747D01*
X864576Y277999D01*
X863990Y278214D01*
X863270Y278389D01*
X862416Y278525D01*
X861428Y278622D01*
X859051Y278700D01*
Y284700D01*
X860355Y284719D01*
X862557Y284875D01*
X863455Y285011D01*
X864217Y285186D01*
X864844Y285400D01*
X865334Y285653D01*
X865689Y285945D01*
X865909Y286276D01*
X865993Y286646D01*
X865583Y276754D01*
D02*
G37*
G36*
X216156Y254506D02*
X216056Y255075D01*
X215756Y255584D01*
X215256Y256033D01*
X214556Y256422D01*
X213656Y256752D01*
X212556Y257021D01*
X211256Y257231D01*
X209756Y257381D01*
X206156Y257500D01*
Y267500D01*
X208056Y267530D01*
X211256Y267770D01*
X212556Y267980D01*
X213656Y268249D01*
X214556Y268578D01*
X215256Y268968D01*
X215756Y269417D01*
X216056Y269926D01*
X216156Y270495D01*
Y254506D01*
D02*
G37*
G36*
X866463Y250324D02*
X866410Y250889D01*
X866193Y251395D01*
X865810Y251842D01*
X865262Y252228D01*
X864549Y252556D01*
X863671Y252824D01*
X862627Y253032D01*
X861419Y253181D01*
X860045Y253270D01*
X858505Y253300D01*
X858700Y259300D01*
X860263Y259330D01*
X862906Y259568D01*
X863985Y259776D01*
X864903Y260044D01*
X865659Y260371D01*
X866255Y260758D01*
X866688Y261205D01*
X866961Y261711D01*
X867072Y262276D01*
X866463Y250324D01*
D02*
G37*
G36*
X281845Y256911D02*
X281395Y255816D01*
X280998Y254654D01*
X280653Y253422D01*
X280124Y250753D01*
X279938Y249315D01*
X279727Y246233D01*
X279700Y244589D01*
X269700Y244999D01*
X269678Y246734D01*
X269356Y251350D01*
X269163Y252692D01*
X268647Y255084D01*
X268325Y256132D01*
X267960Y257083D01*
X267552Y257936D01*
X282349D01*
X281845Y256911D01*
D02*
G37*
G36*
X256445D02*
X255995Y255816D01*
X255598Y254654D01*
X255254Y253422D01*
X254724Y250753D01*
X254538Y249315D01*
X254326Y246233D01*
X254300Y244589D01*
X244300Y244999D01*
X244279Y246734D01*
X243956Y251350D01*
X243763Y252692D01*
X243247Y255084D01*
X242925Y256132D01*
X242560Y257083D01*
X242152Y257936D01*
X256949D01*
X256445Y256911D01*
D02*
G37*
G36*
X726638Y240673D02*
Y228431D01*
X726319Y228112D01*
X524000D01*
X524000Y228112D01*
X520606Y227665D01*
X517444Y226355D01*
X514728Y224272D01*
X514728Y224272D01*
X493778Y203322D01*
X491694Y200606D01*
X490384Y197444D01*
X489938Y194050D01*
X489938Y194050D01*
Y176356D01*
X488764Y175870D01*
X488168Y176466D01*
X485466Y178272D01*
X482463Y179516D01*
X479275Y180150D01*
X476025D01*
X472837Y179516D01*
X469834Y178272D01*
X467132Y176466D01*
X466535Y175870D01*
X465362Y176356D01*
Y202579D01*
X466274Y203778D01*
X468399Y204658D01*
X470957Y206367D01*
X473133Y208543D01*
X474842Y211101D01*
X476020Y213944D01*
X476620Y216962D01*
Y220038D01*
X476020Y223056D01*
X474842Y225899D01*
X473193Y228368D01*
X473319Y228932D01*
X473611Y229638D01*
X709000D01*
X709000Y229638D01*
X712394Y230085D01*
X715556Y231395D01*
X718272Y233478D01*
X723622Y238828D01*
X723622Y238828D01*
X725368Y241104D01*
X726638Y240673D01*
D02*
G37*
G36*
X876013Y230508D02*
X876053Y230334D01*
X876119Y230145D01*
X876211Y229941D01*
X876329Y229723D01*
X876473Y229489D01*
X876840Y228979D01*
X877061Y228701D01*
X877309Y228409D01*
X869722Y228354D01*
X869966Y228650D01*
X870542Y229447D01*
X870683Y229682D01*
X870798Y229902D01*
X870887Y230107D01*
X870950Y230297D01*
X870987Y230472D01*
X870999Y230632D01*
X875999Y230668D01*
X876013Y230508D01*
D02*
G37*
G36*
X880937Y222555D02*
X880440Y222255D01*
X880003Y221755D01*
X879626Y221055D01*
X879310Y220155D01*
X879053Y219056D01*
X878857Y217756D01*
X878721Y216255D01*
X878630Y212656D01*
X868630D01*
X868586Y214556D01*
X868318Y217756D01*
X868095Y219056D01*
X867812Y220155D01*
X867470Y221055D01*
X867068Y221755D01*
X866607Y222255D01*
X866085Y222555D01*
X865505Y222655D01*
X881494D01*
X880937Y222555D01*
D02*
G37*
G36*
X461950Y210939D02*
X461834Y210892D01*
X461673Y210774D01*
X461465Y210584D01*
X461212Y210322D01*
X460177Y209111D01*
X458729Y207258D01*
X450770Y213313D01*
X451294Y214006D01*
X453374Y217088D01*
X453445Y217275D01*
X453460Y217399D01*
X461950Y210939D01*
D02*
G37*
G36*
X924005Y203269D02*
X924252Y199802D01*
X924329Y199513D01*
X924417Y199305D01*
X924514Y199181D01*
X913893Y198183D01*
X913913Y198253D01*
X913932Y198412D01*
X913961Y198995D01*
X914000Y202879D01*
X924000Y204135D01*
X924005Y203269D01*
D02*
G37*
G36*
X878732Y197720D02*
X868150Y199075D01*
X868259Y199203D01*
X868356Y199413D01*
X868441Y199705D01*
X868513Y200079D01*
X868573Y200535D01*
X868658Y201692D01*
X868692Y204042D01*
X878685Y205166D01*
X878732Y197720D01*
D02*
G37*
G36*
X208125Y249361D02*
Y246476D01*
X215414D01*
X215448Y246468D01*
X215620Y246476D01*
X215863D01*
X216156Y246437D01*
X216448Y246476D01*
X236188D01*
Y176106D01*
X235014Y175620D01*
X234168Y176466D01*
X231466Y178272D01*
X228463Y179516D01*
X225275Y180150D01*
X222025D01*
X218837Y179516D01*
X215834Y178272D01*
X213132Y176466D01*
X210950Y174284D01*
X208768Y176466D01*
X206066Y178272D01*
X203063Y179516D01*
X199875Y180150D01*
X196625D01*
X193437Y179516D01*
X190434Y178272D01*
X187732Y176466D01*
X185550Y174284D01*
X183368Y176466D01*
X180666Y178272D01*
X177663Y179516D01*
X174475Y180150D01*
X171225D01*
X168037Y179516D01*
X165034Y178272D01*
X162332Y176466D01*
X160150Y174284D01*
X157968Y176466D01*
X155266Y178272D01*
X152263Y179516D01*
X149075Y180150D01*
X145825D01*
X142637Y179516D01*
X139634Y178272D01*
X136932Y176466D01*
X134750Y174284D01*
X132568Y176466D01*
X129866Y178272D01*
X126863Y179516D01*
X123675Y180150D01*
X120425D01*
X117237Y179516D01*
X114420Y178349D01*
X113182Y178834D01*
X113150Y178852D01*
Y180150D01*
X80150D01*
Y147150D01*
X113150D01*
Y148448D01*
X113182Y148465D01*
X114420Y148951D01*
X117237Y147784D01*
X120425Y147150D01*
X123675D01*
X126863Y147784D01*
X129866Y149028D01*
X132568Y150834D01*
X134750Y153015D01*
X136932Y150834D01*
X139634Y149028D01*
X142637Y147784D01*
X145825Y147150D01*
X149075D01*
X152263Y147784D01*
X155266Y149028D01*
X157614Y150597D01*
X158689Y150314D01*
X159012Y150081D01*
X159058Y149851D01*
X150228Y141022D01*
X148145Y138306D01*
X146835Y135144D01*
X146388Y131750D01*
X146388Y131750D01*
Y104034D01*
X146361Y103686D01*
X144878Y101466D01*
X143634Y98463D01*
X143000Y95275D01*
Y92025D01*
X143634Y88837D01*
X144878Y85834D01*
X146684Y83132D01*
X147280Y82535D01*
X146794Y81362D01*
X94884D01*
X94536Y81389D01*
X92316Y82872D01*
X89313Y84116D01*
X86125Y84750D01*
X82875D01*
X79687Y84116D01*
X76684Y82872D01*
X74528Y81431D01*
X73618Y81362D01*
X71181D01*
X38683Y113860D01*
Y249388D01*
X207318D01*
X208125Y249361D01*
D02*
G37*
G36*
X508059Y174670D02*
X508287Y171662D01*
X508392Y171112D01*
X508515Y170643D01*
X508658Y170254D01*
X508819Y169947D01*
X509000Y169720D01*
X497100D01*
X497280Y169947D01*
X497442Y170254D01*
X497584Y170643D01*
X497708Y171112D01*
X497812Y171662D01*
X497898Y172292D01*
X498012Y173796D01*
X498050Y175624D01*
X508050D01*
X508059Y174670D01*
D02*
G37*
G36*
X457259D02*
X457487Y171662D01*
X457592Y171112D01*
X457715Y170643D01*
X457858Y170254D01*
X458019Y169947D01*
X458200Y169720D01*
X446300D01*
X446480Y169947D01*
X446642Y170254D01*
X446784Y170643D01*
X446908Y171112D01*
X447012Y171662D01*
X447098Y172292D01*
X447212Y173796D01*
X447250Y175624D01*
X457250D01*
X457259Y174670D01*
D02*
G37*
G36*
X431859D02*
X432087Y171662D01*
X432192Y171112D01*
X432315Y170643D01*
X432458Y170254D01*
X432619Y169947D01*
X432800Y169720D01*
X420900D01*
X421080Y169947D01*
X421242Y170254D01*
X421384Y170643D01*
X421508Y171112D01*
X421612Y171662D01*
X421698Y172292D01*
X421812Y173796D01*
X421850Y175624D01*
X431850D01*
X431859Y174670D01*
D02*
G37*
G36*
X279700Y175435D02*
X279709Y174479D01*
X279919Y171471D01*
X280015Y170922D01*
X280129Y170455D01*
X280261Y170070D01*
X280410Y169765D01*
X280576Y169542D01*
X268681Y169893D01*
X268875Y170121D01*
X269048Y170430D01*
X269201Y170820D01*
X269333Y171290D01*
X269445Y171840D01*
X269537Y172471D01*
X269659Y173974D01*
X269700Y175799D01*
X279700Y175435D01*
D02*
G37*
G36*
X254300D02*
X254309Y174479D01*
X254519Y171471D01*
X254615Y170922D01*
X254729Y170455D01*
X254861Y170070D01*
X255009Y169765D01*
X255176Y169542D01*
X243281Y169893D01*
X243475Y170121D01*
X243648Y170430D01*
X243801Y170820D01*
X243933Y171290D01*
X244045Y171840D01*
X244137Y172471D01*
X244259Y173974D01*
X244300Y175799D01*
X254300Y175435D01*
D02*
G37*
G36*
X534219Y157353D02*
X534058Y157046D01*
X533915Y156657D01*
X533792Y156188D01*
X533687Y155638D01*
X533602Y155007D01*
X533488Y153503D01*
X533450Y151676D01*
X523450D01*
X523440Y152630D01*
X523212Y155638D01*
X523108Y156188D01*
X522984Y156657D01*
X522842Y157046D01*
X522680Y157353D01*
X522500Y157580D01*
X534400D01*
X534219Y157353D01*
D02*
G37*
G36*
X483419D02*
X483258Y157046D01*
X483115Y156657D01*
X482992Y156188D01*
X482887Y155638D01*
X482802Y155007D01*
X482688Y153503D01*
X482650Y151676D01*
X472650D01*
X472640Y152630D01*
X472412Y155638D01*
X472308Y156188D01*
X472184Y156657D01*
X472042Y157046D01*
X471880Y157353D01*
X471700Y157580D01*
X483600D01*
X483419Y157353D01*
D02*
G37*
G36*
X356419D02*
X356258Y157046D01*
X356115Y156657D01*
X355992Y156188D01*
X355887Y155638D01*
X355802Y155007D01*
X355688Y153503D01*
X355650Y151676D01*
X345650D01*
X345640Y152630D01*
X345412Y155638D01*
X345308Y156188D01*
X345184Y156657D01*
X345042Y157046D01*
X344880Y157353D01*
X344700Y157580D01*
X356600D01*
X356419Y157353D01*
D02*
G37*
G36*
X331019D02*
X330858Y157046D01*
X330715Y156657D01*
X330592Y156188D01*
X330487Y155638D01*
X330402Y155007D01*
X330288Y153503D01*
X330250Y151676D01*
X320250D01*
X320240Y152630D01*
X320012Y155638D01*
X319908Y156188D01*
X319784Y156657D01*
X319642Y157046D01*
X319480Y157353D01*
X319300Y157580D01*
X331200D01*
X331019Y157353D01*
D02*
G37*
G36*
X305619D02*
X305458Y157046D01*
X305315Y156657D01*
X305192Y156188D01*
X305087Y155638D01*
X305002Y155007D01*
X304888Y153503D01*
X304850Y151676D01*
X294850D01*
X294840Y152630D01*
X294612Y155638D01*
X294508Y156188D01*
X294384Y156657D01*
X294242Y157046D01*
X294080Y157353D01*
X293900Y157580D01*
X305800D01*
X305619Y157353D01*
D02*
G37*
G36*
X229419D02*
X229258Y157046D01*
X229115Y156657D01*
X228992Y156188D01*
X228887Y155638D01*
X228802Y155007D01*
X228688Y153503D01*
X228650Y151676D01*
X218650D01*
X218640Y152630D01*
X218412Y155638D01*
X218308Y156188D01*
X218184Y156657D01*
X218042Y157046D01*
X217880Y157353D01*
X217700Y157580D01*
X229600D01*
X229419Y157353D01*
D02*
G37*
G36*
X204019D02*
X203858Y157046D01*
X203715Y156657D01*
X203592Y156188D01*
X203487Y155638D01*
X203402Y155007D01*
X203288Y153503D01*
X203250Y151676D01*
X193250D01*
X193240Y152630D01*
X193012Y155638D01*
X192908Y156188D01*
X192784Y156657D01*
X192642Y157046D01*
X192480Y157353D01*
X192300Y157580D01*
X204200D01*
X204019Y157353D01*
D02*
G37*
G36*
X178619D02*
X178458Y157046D01*
X178315Y156657D01*
X178192Y156188D01*
X178087Y155638D01*
X178002Y155007D01*
X177888Y153503D01*
X177850Y151676D01*
X167850D01*
X167840Y152630D01*
X167612Y155638D01*
X167508Y156188D01*
X167384Y156657D01*
X167242Y157046D01*
X167080Y157353D01*
X166900Y157580D01*
X178800D01*
X178619Y157353D01*
D02*
G37*
G36*
X263932Y150834D02*
X266634Y149028D01*
X269637Y147784D01*
X272825Y147150D01*
X276075D01*
X279263Y147784D01*
X282266Y149028D01*
X284968Y150834D01*
X285564Y151430D01*
X286738Y150944D01*
Y138650D01*
X286738Y138650D01*
X287185Y135256D01*
X288494Y132094D01*
X290578Y129378D01*
X292038Y127919D01*
Y112350D01*
X271573D01*
X271280Y112389D01*
X270988Y112350D01*
X263250D01*
Y108990D01*
X262928Y108962D01*
X252081D01*
X236762Y124281D01*
Y150944D01*
X237935Y151430D01*
X238532Y150834D01*
X241234Y149028D01*
X244237Y147784D01*
X247425Y147150D01*
X250675D01*
X253863Y147784D01*
X256866Y149028D01*
X259568Y150834D01*
X261750Y153015D01*
X263932Y150834D01*
D02*
G37*
G36*
X912314Y179422D02*
X915156Y178244D01*
X918174Y177644D01*
X921251D01*
X924269Y178244D01*
X926118Y179010D01*
X927388Y178162D01*
Y150931D01*
X910403Y133946D01*
X909264Y134508D01*
X909361Y135249D01*
Y179867D01*
X910631Y180546D01*
X912314Y179422D01*
D02*
G37*
G36*
X310159Y106870D02*
X310387Y103862D01*
X310492Y103312D01*
X310616Y102843D01*
X310758Y102455D01*
X310919Y102147D01*
X311100Y101920D01*
X299200D01*
X299380Y102147D01*
X299542Y102455D01*
X299685Y102843D01*
X299808Y103312D01*
X299912Y103862D01*
X299998Y104493D01*
X300112Y105997D01*
X300150Y107824D01*
X310150D01*
X310159Y106870D01*
D02*
G37*
G36*
X189909Y104670D02*
X190138Y101662D01*
X190242Y101112D01*
X190366Y100643D01*
X190508Y100254D01*
X190669Y99947D01*
X190850Y99720D01*
X178950D01*
X179130Y99947D01*
X179292Y100254D01*
X179435Y100643D01*
X179558Y101112D01*
X179662Y101662D01*
X179748Y102292D01*
X179862Y103797D01*
X179900Y105624D01*
X189900D01*
X189909Y104670D01*
D02*
G37*
G36*
X164510D02*
X164737Y101662D01*
X164842Y101112D01*
X164965Y100643D01*
X165108Y100254D01*
X165270Y99947D01*
X165450Y99720D01*
X153550D01*
X153730Y99947D01*
X153892Y100254D01*
X154035Y100643D01*
X154158Y101112D01*
X154263Y101662D01*
X154348Y102292D01*
X154462Y103797D01*
X154500Y105624D01*
X164500D01*
X164510Y104670D01*
D02*
G37*
G36*
X492532Y150834D02*
X495234Y149028D01*
X498237Y147784D01*
X501425Y147150D01*
X504675D01*
X507863Y147784D01*
X510866Y149028D01*
X513568Y150834D01*
X514164Y151430D01*
X515338Y150944D01*
Y125550D01*
X515338Y125550D01*
X515784Y122156D01*
X517094Y118994D01*
X519178Y116278D01*
X533978Y101478D01*
X536694Y99395D01*
X539856Y98085D01*
X543250Y97638D01*
X543250Y97638D01*
X871367D01*
X871961Y96814D01*
X872067Y96399D01*
X871876Y96112D01*
X514681D01*
X490762Y120031D01*
Y150944D01*
X491935Y151430D01*
X492532Y150834D01*
D02*
G37*
G36*
X362131Y87430D02*
X362030Y88080D01*
X361730Y88661D01*
X361231Y89174D01*
X360531Y89619D01*
X359631Y89995D01*
X358531Y90303D01*
X357230Y90542D01*
X355731Y90713D01*
X354030Y90815D01*
X352131Y90850D01*
Y100850D01*
X354030Y100885D01*
X357230Y101166D01*
X358531Y101413D01*
X359631Y101730D01*
X360531Y102117D01*
X361231Y102574D01*
X361730Y103102D01*
X362030Y103701D01*
X362131Y104369D01*
Y87430D01*
D02*
G37*
G36*
X271280Y87381D02*
X271180Y88040D01*
X270881Y88630D01*
X270380Y89150D01*
X269681Y89601D01*
X268780Y89983D01*
X267680Y90295D01*
X266381Y90538D01*
X264881Y90711D01*
X263181Y90815D01*
X261280Y90850D01*
Y100850D01*
X263181Y100885D01*
X266381Y101162D01*
X267680Y101405D01*
X268780Y101718D01*
X269681Y102099D01*
X270380Y102550D01*
X270881Y103071D01*
X271180Y103660D01*
X271280Y104320D01*
Y87381D01*
D02*
G37*
G36*
X340379Y86578D02*
X342589Y84882D01*
X342158Y83612D01*
X317906D01*
X317420Y84785D01*
X317966Y85332D01*
X319772Y88034D01*
X321016Y91037D01*
X321650Y94225D01*
Y97475D01*
X321016Y100663D01*
X319772Y103666D01*
X318331Y105822D01*
X318262Y106732D01*
Y107035D01*
X319436Y107521D01*
X340379Y86578D01*
D02*
G37*
G36*
X210538Y129934D02*
Y118850D01*
X210538Y118850D01*
X210984Y115456D01*
X212294Y112294D01*
X214378Y109578D01*
X237378Y86578D01*
X240094Y84495D01*
X241995Y83707D01*
X241742Y82437D01*
X198780D01*
X198101Y83707D01*
X199522Y85834D01*
X200766Y88837D01*
X201400Y92025D01*
Y95275D01*
X200766Y98463D01*
X199522Y101466D01*
X198081Y103622D01*
X198012Y104532D01*
Y118580D01*
X207521Y128090D01*
X207522Y128090D01*
X209268Y130365D01*
X210538Y129934D01*
D02*
G37*
G36*
X389930Y64550D02*
X389703Y64731D01*
X389396Y64892D01*
X389007Y65034D01*
X388538Y65158D01*
X387988Y65262D01*
X387357Y65348D01*
X385854Y65462D01*
X384026Y65500D01*
Y75500D01*
X384980Y75510D01*
X387988Y75738D01*
X388538Y75842D01*
X389007Y75965D01*
X389396Y76108D01*
X389703Y76269D01*
X389930Y76450D01*
Y64550D01*
D02*
G37*
G36*
X376897Y76269D02*
X377204Y76108D01*
X377593Y75965D01*
X378062Y75842D01*
X378612Y75738D01*
X379243Y75652D01*
X380746Y75538D01*
X382574Y75500D01*
Y65500D01*
X381620Y65490D01*
X378612Y65262D01*
X378062Y65158D01*
X377593Y65034D01*
X377204Y64892D01*
X376897Y64731D01*
X376670Y64550D01*
Y76450D01*
X376897Y76269D01*
D02*
G37*
G36*
X364530Y64550D02*
X364303Y64731D01*
X363996Y64892D01*
X363607Y65034D01*
X363138Y65158D01*
X362588Y65262D01*
X361958Y65348D01*
X360453Y65462D01*
X358626Y65500D01*
Y75500D01*
X359580Y75510D01*
X362588Y75738D01*
X363138Y75842D01*
X363607Y75965D01*
X363996Y76108D01*
X364303Y76269D01*
X364530Y76450D01*
Y64550D01*
D02*
G37*
G36*
X311411Y76258D02*
X311718Y76099D01*
X312106Y75958D01*
X312575Y75837D01*
X313125Y75734D01*
X314467Y75584D01*
X316133Y75509D01*
X317087Y75500D01*
X317160Y65500D01*
X316206Y65490D01*
X313198Y65259D01*
X312648Y65153D01*
X312179Y65028D01*
X311790Y64883D01*
X311482Y64719D01*
X311255Y64536D01*
X311185Y76436D01*
X311411Y76258D01*
D02*
G37*
G36*
X299080Y64500D02*
X298853Y64681D01*
X298546Y64842D01*
X298157Y64985D01*
X297688Y65108D01*
X297138Y65213D01*
X296507Y65298D01*
X295004Y65412D01*
X293176Y65450D01*
Y75450D01*
X294130Y75460D01*
X297138Y75688D01*
X297688Y75792D01*
X298157Y75916D01*
X298546Y76058D01*
X298853Y76220D01*
X299080Y76400D01*
Y64500D01*
D02*
G37*
G36*
X286047Y76220D02*
X286354Y76058D01*
X286743Y75916D01*
X287212Y75792D01*
X287762Y75688D01*
X288393Y75602D01*
X289897Y75488D01*
X291724Y75450D01*
Y65450D01*
X290770Y65441D01*
X287762Y65213D01*
X287212Y65108D01*
X286743Y64985D01*
X286354Y64842D01*
X286047Y64681D01*
X285820Y64500D01*
Y76400D01*
X286047Y76220D01*
D02*
G37*
G36*
X274521Y63749D02*
X274330Y63858D01*
X274054Y63956D01*
X273692Y64043D01*
X273244Y64118D01*
X272091Y64233D01*
X270595Y64302D01*
X268756Y64325D01*
X267085Y74325D01*
X268034Y74337D01*
X270398Y74520D01*
X271024Y74630D01*
X271570Y74764D01*
X272035Y74923D01*
X272419Y75106D01*
X272723Y75313D01*
X272946Y75544D01*
X274521Y63749D01*
D02*
G37*
G36*
X190362Y74807D02*
X190641Y74706D01*
X191005Y74617D01*
X191455Y74539D01*
X192610Y74420D01*
X194107Y74349D01*
X195945Y74325D01*
X197540Y64325D01*
X196590Y64313D01*
X194226Y64132D01*
X193599Y64023D01*
X193053Y63890D01*
X192587Y63733D01*
X192202Y63551D01*
X191898Y63345D01*
X191674Y63116D01*
X190169Y74920D01*
X190362Y74807D01*
D02*
G37*
G36*
X178830Y62300D02*
X178603Y62481D01*
X178296Y62642D01*
X177907Y62785D01*
X177438Y62908D01*
X176888Y63012D01*
X176257Y63098D01*
X174753Y63212D01*
X172926Y63250D01*
Y73250D01*
X173880Y73260D01*
X176888Y73488D01*
X177438Y73592D01*
X177907Y73716D01*
X178296Y73858D01*
X178603Y74019D01*
X178830Y74200D01*
Y62300D01*
D02*
G37*
G36*
X165797Y74019D02*
X166104Y73858D01*
X166493Y73716D01*
X166962Y73592D01*
X167512Y73488D01*
X168143Y73402D01*
X169646Y73288D01*
X171474Y73250D01*
Y63250D01*
X170520Y63240D01*
X167512Y63012D01*
X166962Y62908D01*
X166493Y62785D01*
X166104Y62642D01*
X165797Y62481D01*
X165570Y62300D01*
Y74200D01*
X165797Y74019D01*
D02*
G37*
G36*
X153430Y62300D02*
X153203Y62481D01*
X152896Y62642D01*
X152507Y62785D01*
X152038Y62908D01*
X151488Y63012D01*
X150857Y63098D01*
X149354Y63212D01*
X147526Y63250D01*
Y73250D01*
X148480Y73260D01*
X151488Y73488D01*
X152038Y73592D01*
X152507Y73716D01*
X152896Y73858D01*
X153203Y74019D01*
X153430Y74200D01*
Y62300D01*
D02*
G37*
G36*
X90797Y74019D02*
X91104Y73858D01*
X91493Y73716D01*
X91962Y73592D01*
X92512Y73488D01*
X93142Y73402D01*
X94647Y73288D01*
X96474Y73250D01*
Y63250D01*
X95520Y63240D01*
X92512Y63012D01*
X91962Y62908D01*
X91493Y62785D01*
X91104Y62642D01*
X90797Y62481D01*
X90570Y62300D01*
Y74200D01*
X90797Y74019D01*
D02*
G37*
G36*
X78430Y62300D02*
X78203Y62481D01*
X77896Y62642D01*
X77507Y62785D01*
X77038Y62908D01*
X76488Y63012D01*
X75858Y63098D01*
X74353Y63212D01*
X72526Y63250D01*
Y73250D01*
X73480Y73260D01*
X76488Y73488D01*
X77038Y73592D01*
X77507Y73716D01*
X77896Y73858D01*
X78203Y74019D01*
X78430Y74200D01*
Y62300D01*
D02*
G37*
D24*
X867750Y409000D02*
X896249Y380501D01*
X779150Y461776D02*
X831926Y409000D01*
X867750D01*
X719674Y358076D02*
X739750Y338000D01*
X637883Y358076D02*
X719674D01*
X714350Y293750D02*
Y319892D01*
X639076Y325633D02*
X641797D01*
X641914Y325750D01*
X708492D02*
X714350Y319892D01*
X641914Y325750D02*
X708492D01*
X789883Y358076D02*
X790550Y357409D01*
X780209Y392250D02*
X790550Y381909D01*
X791076Y329250D02*
X791617Y328709D01*
X789883Y358459D02*
X790424Y359000D01*
X791617Y328326D02*
Y328709D01*
X790550Y331241D02*
Y357409D01*
X791617Y329791D02*
Y330174D01*
X790550Y327259D02*
X791617Y328326D01*
X791076Y329250D02*
X791617Y329791D01*
X789883Y359541D02*
X790424Y359000D01*
X789883Y358076D02*
Y358459D01*
X790550Y360591D02*
Y381909D01*
X789883Y359924D02*
X790550Y360591D01*
X789883Y359541D02*
Y359924D01*
X790550Y293750D02*
Y327259D01*
Y331241D02*
X791617Y330174D01*
X779150Y461776D02*
Y476350D01*
X775650Y479850D02*
X779150Y476350D01*
X750250Y505750D02*
X803500D01*
X837375Y432625D02*
X879375D01*
X803500Y466500D02*
X837375Y432625D01*
X803500Y505750D02*
X858500D01*
X803500Y466500D02*
Y505750D01*
X896249Y135249D02*
Y380501D01*
X871750Y110750D02*
X896249Y135249D01*
X919000Y193264D02*
Y393000D01*
X879375Y432625D02*
X919000Y393000D01*
X873539Y225125D02*
X873734Y198338D01*
X833100Y462650D02*
Y479700D01*
X838500Y457250D02*
X889750D01*
X833100Y462650D02*
X838500Y457250D01*
X858500Y480350D02*
X894400D01*
X901750Y527666D02*
Y620000D01*
X703500Y635750D02*
X886000D01*
X901750Y620000D01*
X858500Y505100D02*
X879184D01*
X901750Y527666D01*
X940500Y145500D02*
Y406500D01*
X553850Y392250D02*
X780209D01*
X479250Y47750D02*
X876500D01*
X965000Y136250D01*
Y409750D01*
X509250Y83000D02*
X878000D01*
X940500Y145500D01*
X543250Y110750D02*
X871750D01*
X25571Y264500D02*
Y359321D01*
Y108429D02*
Y264500D01*
X27571Y262500D02*
X224150D01*
X333750Y503400D02*
X350142D01*
X308350D02*
X333750D01*
X370600Y70500D02*
X396000D01*
X305200D02*
X370600D01*
X350142Y503400D02*
X356000Y509258D01*
Y636250D01*
X115750D02*
X356000D01*
X703000D01*
X325250Y420750D02*
X333500Y429000D01*
Y480237D01*
X308350Y445100D02*
Y478000D01*
X299850Y436600D02*
X308350Y445100D01*
X275350Y503400D02*
X308350D01*
X264150Y514600D02*
X275350Y503400D01*
X264150Y514600D02*
Y542000D01*
X212750Y466250D02*
Y542329D01*
Y466250D02*
X249050Y429950D01*
X239000Y488408D02*
Y539265D01*
Y488408D02*
X274450Y452958D01*
X96650Y617150D02*
X115750Y636250D01*
X703000D02*
X703500Y635750D01*
X96650Y392250D02*
Y617150D01*
X391941Y135400D02*
X410100Y117241D01*
X394661Y97239D02*
Y107224D01*
X410100Y116900D02*
X479250Y47750D01*
X394661Y97239D02*
X396000Y95900D01*
X376100Y150900D02*
X391600Y135400D01*
X391941D01*
X410100Y116900D02*
Y117241D01*
X384144Y117400D02*
X384485D01*
X368000Y121250D02*
X380294D01*
X384144Y117400D01*
X384485D02*
X394661Y107224D01*
X528450Y125550D02*
X543250Y110750D01*
X889750Y457250D02*
X940500Y406500D01*
X376050Y163650D02*
X376100Y163600D01*
Y150900D02*
Y163600D01*
X84500Y68250D02*
X159500D01*
X25571Y108429D02*
X65750Y68250D01*
X84500D01*
X25571Y359321D02*
X58500Y392250D01*
X96650D01*
X279750Y70450D02*
X305150D01*
X159500Y68250D02*
X184900D01*
X185975Y69325D01*
X278625D01*
X279750Y70450D01*
X428700Y527950D02*
X471000Y570250D01*
X428700Y439500D02*
Y527950D01*
X299850Y392250D02*
Y436600D01*
X325250Y392250D02*
Y420750D01*
X612250Y294250D02*
X612750Y293750D01*
X460250Y294500D02*
X612250Y294250D01*
X452250Y163650D02*
Y207000D01*
X461000Y218500D01*
X894400Y480350D02*
X965000Y409750D01*
X528450Y125550D02*
Y163650D01*
X477650Y114600D02*
Y163650D01*
Y114600D02*
X509250Y83000D01*
X350650Y138600D02*
X368000Y121250D01*
X349650Y95850D02*
X370600D01*
X426850Y163650D02*
Y220850D01*
X448750Y242750D02*
X709000D01*
X426850Y220850D02*
X448750Y242750D01*
X709000D02*
X714350Y248100D01*
Y293750D01*
X503050Y163650D02*
Y194050D01*
X524000Y215000D01*
X731750D01*
X739750Y223000D01*
Y293750D01*
X765150Y192650D02*
Y293750D01*
X553850Y163650D02*
X736150D01*
X765150Y192650D01*
X739750Y293750D02*
Y338000D01*
X504100Y474850D02*
X505575Y476325D01*
X504100Y440249D02*
Y474850D01*
X325250Y120250D02*
X349650Y95850D01*
X325250Y120250D02*
Y163650D01*
X223650Y118850D02*
X246650Y95850D01*
X279750D01*
X350650Y138600D02*
Y163650D01*
X299850Y138650D02*
Y163650D01*
X305150Y95850D02*
Y133350D01*
X299850Y138650D02*
X305150Y133350D01*
X223650Y118850D02*
Y163650D01*
X184900Y124012D02*
X198250Y137361D01*
Y163650D01*
X184900Y93650D02*
Y124012D01*
X159500Y93650D02*
Y131750D01*
X172850Y145100D01*
Y163650D01*
X274700Y262250D02*
X274950Y262500D01*
X274700Y163900D02*
Y262250D01*
X274450Y163650D02*
X274700Y163900D01*
X249300Y262250D02*
X249550Y262500D01*
X249300Y163900D02*
Y262250D01*
X249050Y163650D02*
X249300Y163900D01*
X274450Y392250D02*
Y452958D01*
X249050Y392250D02*
Y429950D01*
X479500Y439500D02*
Y494000D01*
X492500Y507000D02*
X506250D01*
X479500Y494000D02*
X492500Y507000D01*
X454100Y439500D02*
Y514350D01*
X477250Y537500D02*
X506250D01*
X454100Y514350D02*
X477250Y537500D01*
X471000Y570250D02*
X506250D01*
X503050Y437650D02*
X504900Y439500D01*
X503050Y392250D02*
Y437650D01*
X478575Y438575D02*
X479500Y439500D01*
X478575Y393175D02*
Y438575D01*
X477650Y392250D02*
X478575Y393175D01*
X453175Y438575D02*
X454100Y439500D01*
X453175Y393175D02*
Y438575D01*
X452250Y392250D02*
X453175Y393175D01*
X427775Y438575D02*
X428700Y439500D01*
X427775Y393175D02*
Y438575D01*
X426850Y392250D02*
X427775Y393175D01*
D25*
X834645Y274605D02*
Y363855D01*
X574750Y408250D02*
X790250D01*
X796049Y422250D02*
X849000Y369299D01*
X790250Y408250D02*
X834645Y363855D01*
X849000Y291751D02*
Y369299D01*
X598000Y422250D02*
X796049D01*
X571750Y448500D02*
X598000Y422250D01*
X387450Y421950D02*
Y567950D01*
X425750Y606250D01*
X373450Y583450D02*
X410250Y620250D01*
X373450Y436200D02*
Y583450D01*
X376050Y410550D02*
X387450Y421950D01*
X401450Y392250D02*
Y546200D01*
X350650Y413400D02*
X373450Y436200D01*
X401450Y546200D02*
X446250Y591000D01*
X578000Y620250D02*
X600500Y597750D01*
X550500Y606250D02*
X571750Y585000D01*
X425750Y606250D02*
X550500D01*
X410250Y620250D02*
X578000D01*
X606750Y444750D02*
X669750D01*
X705500Y480500D01*
X743219D01*
X552250Y430750D02*
X574750Y408250D01*
X536500Y591000D02*
X552250Y575250D01*
X446250Y591000D02*
X536500D01*
X376050Y392250D02*
Y410550D01*
X852950Y256300D02*
X880249D01*
X834645Y274605D02*
X852950Y256300D01*
X859051Y281700D02*
X880249D01*
X849000Y291751D02*
X859051Y281700D01*
X600500Y451000D02*
X606750Y444750D01*
X600500Y451000D02*
Y597750D01*
X571750Y448500D02*
Y585000D01*
X552250Y430750D02*
Y575250D01*
X350650Y392250D02*
Y413400D01*
D26*
X863250Y538497D02*
Y571750D01*
X858500Y533747D02*
X863250Y538497D01*
X858500Y530500D02*
Y533747D01*
X873499Y230650D02*
X873539Y225125D01*
X873734Y196270D02*
Y198338D01*
X872750Y193000D02*
X873734Y196270D01*
X25571Y264500D02*
X27571Y262500D01*
D27*
X871000Y348500D02*
D03*
X814250D02*
D03*
X934250Y571250D02*
D03*
X863250Y571750D02*
D03*
X919712Y193264D02*
D03*
X872750Y193000D02*
D03*
X45500Y480250D02*
D03*
X139250Y479500D02*
D03*
X460250Y294500D02*
D03*
X461000Y218500D02*
D03*
D28*
X858500Y505100D02*
D03*
X833100Y530500D02*
D03*
Y479700D02*
D03*
X858500Y530500D02*
D03*
X833100Y505100D02*
D03*
X122050Y163650D02*
D03*
X147450D02*
D03*
X172850D02*
D03*
X198250D02*
D03*
X223650D02*
D03*
X249050D02*
D03*
X274450D02*
D03*
X299850D02*
D03*
X325250D02*
D03*
X350650D02*
D03*
X376050D02*
D03*
X401450D02*
D03*
X426850D02*
D03*
X452250D02*
D03*
X477650D02*
D03*
X503050D02*
D03*
X528450D02*
D03*
X553850D02*
D03*
X96650Y392250D02*
D03*
X122050D02*
D03*
X147450D02*
D03*
X172850D02*
D03*
X198250D02*
D03*
X223650D02*
D03*
X249050D02*
D03*
X274450D02*
D03*
X299850D02*
D03*
X325250D02*
D03*
X376050D02*
D03*
X401450D02*
D03*
X426850D02*
D03*
X528450D02*
D03*
X553850D02*
D03*
X750250Y505250D02*
D03*
X775650Y530650D02*
D03*
X750250Y479850D02*
D03*
Y530650D02*
D03*
X775650Y505250D02*
D03*
X396000Y70500D02*
D03*
X370600Y45100D02*
D03*
X396000Y95900D02*
D03*
Y45100D02*
D03*
X370600Y70500D02*
D03*
X305150Y70450D02*
D03*
X279750Y45050D02*
D03*
X305150Y95850D02*
D03*
Y45050D02*
D03*
X279750Y70450D02*
D03*
X84500Y68250D02*
D03*
X159500D02*
D03*
X184900Y93650D02*
D03*
X159500Y42850D02*
D03*
Y93650D02*
D03*
X184900Y68250D02*
D03*
X308350Y503400D02*
D03*
X333750Y478000D02*
D03*
Y528800D02*
D03*
X308350Y478000D02*
D03*
X333750Y503400D02*
D03*
X612750Y293750D02*
D03*
X638150D02*
D03*
X663550D02*
D03*
X688950D02*
D03*
X714350D02*
D03*
X739750D02*
D03*
X765150D02*
D03*
D29*
X858500Y479700D02*
D03*
X775650Y479850D02*
D03*
X370600Y95900D02*
D03*
X279750Y95850D02*
D03*
X84500Y42850D02*
D03*
X184900D02*
D03*
X308350Y528800D02*
D03*
D30*
X789883Y358076D02*
D03*
X637883D02*
D03*
X792000Y325250D02*
D03*
X640000D02*
D03*
X658250Y537500D02*
D03*
X506250D02*
D03*
Y507000D02*
D03*
X658250D02*
D03*
X657575Y476325D02*
D03*
X505575D02*
D03*
X506250Y570250D02*
D03*
X658250D02*
D03*
D31*
X264150Y542000D02*
D03*
X224150Y262500D02*
D03*
X504100Y440249D02*
D03*
D32*
X238750Y542000D02*
D03*
X213350D02*
D03*
X187950D02*
D03*
X249550Y262500D02*
D03*
X274950D02*
D03*
X300350D02*
D03*
X478700Y440249D02*
D03*
X453300D02*
D03*
X427900D02*
D03*
D33*
X96650Y163650D02*
D03*
X790550Y293750D02*
D03*
D34*
X350650Y392250D02*
D03*
X452250D02*
D03*
X477650D02*
D03*
D35*
X503050D02*
D03*
D36*
X873499Y306850D02*
D03*
Y281450D02*
D03*
Y256050D02*
D03*
D37*
Y230650D02*
D03*
M02*
